<?xml version="1.0" standalone="no"?>
 <!DOCTYPE svg PUBLIC "-//W3C//DTD SVG 1.1//EN" 
 "http://www.w3.org/Graphics/SVG/1.1/DTD/svg11.dtd"> 
<svg
  xmlns:svg="http://www.w3.org/2000/svg"
  xmlns="http://www.w3.org/2000/svg"
  xmlns:xlink="http://www.w3.org/1999/xlink"
  version="1.1"
  width="8.788400cm" height="8.585200cm" viewBox="0 0 87884000 85852000">
<title>SVG Picture created as clockschematic-F_Fab.svg date 2023/07/26 13:47:30 </title>
  <desc>Picture generated by PCBNEW </desc>
<g style="fill:#000000; fill-opacity:1.000000;stroke:#000000; stroke-opacity:1.000000;
stroke-linecap:round; stroke-linejoin:round;"
 transform="translate(0 0) scale(1 1)">
</g>
<g style="fill:#000000; fill-opacity:0.0; 
stroke:#000000; stroke-width:0.000000; stroke-opacity:1; 
stroke-linecap:round; stroke-linejoin:round;">
</g>
<g style="fill:#AFAFAF; fill-opacity:0.0; 
stroke:#AFAFAF; stroke-width:0.000000; stroke-opacity:1; 
stroke-linecap:round; stroke-linejoin:round;">
</g>
<g style="fill:#AFAFAF; fill-opacity:0.0; 
stroke:#AFAFAF; stroke-width:150000.000000; stroke-opacity:1; 
stroke-linecap:round; stroke-linejoin:round;">
<text x="42664000.000000" y="73022000.000000"
textLength="6616590.000000" font-size="1333333.000000" lengthAdjust="spacingAndGlyphs"
text-anchor="middle" opacity="0">SW_Push</text>
<g class="stroked-text"><desc>SW_Push</desc>
<path d="M39616380 72926761
L39759238 72974380
L39997333 72974380
L40092571 72926761
L40140190 72879142
L40187809 72783904
L40187809 72688666
L40140190 72593428
L40092571 72545809
L39997333 72498190
L39806857 72450571
L39711619 72402952
L39664000 72355333
L39616380 72260095
L39616380 72164857
L39664000 72069619
L39711619 72022000
L39806857 71974380
L40044952 71974380
L40187809 72022000
" />
<path d="M40521142 71974380
L40759238 72974380
L40949714 72260095
L41140190 72974380
L41378285 71974380
" />
<path d="M41521142 73069619
L42283047 73069619
" />
<path d="M42521142 72974380
L42521142 71974380
L42902095 71974380
L42997333 72022000
L43044952 72069619
L43092571 72164857
L43092571 72307714
L43044952 72402952
L42997333 72450571
L42902095 72498190
L42521142 72498190
" />
<path d="M43949714 72307714
L43949714 72974380
" />
<path d="M43521142 72307714
L43521142 72831523
L43568761 72926761
L43664000 72974380
L43806857 72974380
L43902095 72926761
L43949714 72879142
" />
<path d="M44378285 72926761
L44473523 72974380
L44664000 72974380
L44759238 72926761
L44806857 72831523
L44806857 72783904
L44759238 72688666
L44664000 72641047
L44521142 72641047
L44425904 72593428
L44378285 72498190
L44378285 72450571
L44425904 72355333
L44521142 72307714
L44664000 72307714
L44759238 72355333
" />
<path d="M45235428 72974380
L45235428 71974380
" />
<path d="M45664000 72974380
L45664000 72450571
L45616380 72355333
L45521142 72307714
L45378285 72307714
L45283047 72355333
L45235428 72402952
" />
</g><text x="42164000.000000" y="68572000.000000"
textLength="3242619.000000" font-size="1333333.000000" lengthAdjust="spacingAndGlyphs"
text-anchor="middle" opacity="0">SW2</text>
<g class="stroked-text"><desc>SW2</desc>
<path d="M40830666 68476761
L40973523 68524380
L41211619 68524380
L41306857 68476761
L41354476 68429142
L41402095 68333904
L41402095 68238666
L41354476 68143428
L41306857 68095809
L41211619 68048190
L41021142 68000571
L40925904 67952952
L40878285 67905333
L40830666 67810095
L40830666 67714857
L40878285 67619619
L40925904 67572000
L41021142 67524380
L41259238 67524380
L41402095 67572000
" />
<path d="M41735428 67524380
L41973523 68524380
L42164000 67810095
L42354476 68524380
L42592571 67524380
" />
<path d="M42925904 67619619
L42973523 67572000
L43068761 67524380
L43306857 67524380
L43402095 67572000
L43449714 67619619
L43497333 67714857
L43497333 67810095
L43449714 67952952
L42878285 68524380
L43497333 68524380
" />
</g><text x="57904000.000000" y="73022000.000000"
textLength="6671190.000000" font-size="1333333.000000" lengthAdjust="spacingAndGlyphs"
text-anchor="middle" opacity="0">SW_Push</text>
<g class="stroked-text"><desc>SW_Push</desc>
<path d="M54856380 72926761
L54999238 72974380
L55237333 72974380
L55332571 72926761
L55380190 72879142
L55427809 72783904
L55427809 72688666
L55380190 72593428
L55332571 72545809
L55237333 72498190
L55046857 72450571
L54951619 72402952
L54904000 72355333
L54856380 72260095
L54856380 72164857
L54904000 72069619
L54951619 72022000
L55046857 71974380
L55284952 71974380
L55427809 72022000
" />
<path d="M55761142 71974380
L55999238 72974380
L56189714 72260095
L56380190 72974380
L56618285 71974380
" />
<path d="M56761142 73069619
L57523047 73069619
" />
<path d="M57761142 72974380
L57761142 71974380
L58142095 71974380
L58237333 72022000
L58284952 72069619
L58332571 72164857
L58332571 72307714
L58284952 72402952
L58237333 72450571
L58142095 72498190
L57761142 72498190
" />
<path d="M59189714 72307714
L59189714 72974380
" />
<path d="M58761142 72307714
L58761142 72831523
L58808761 72926761
L58904000 72974380
L59046857 72974380
L59142095 72926761
L59189714 72879142
" />
<path d="M59618285 72926761
L59713523 72974380
L59904000 72974380
L59999238 72926761
L60046857 72831523
L60046857 72783904
L59999238 72688666
L59904000 72641047
L59761142 72641047
L59665904 72593428
L59618285 72498190
L59618285 72450571
L59665904 72355333
L59761142 72307714
L59904000 72307714
L59999238 72355333
" />
<path d="M60475428 72974380
L60475428 71974380
" />
<path d="M60904000 72974380
L60904000 72450571
L60856380 72355333
L60761142 72307714
L60618285 72307714
L60523047 72355333
L60475428 72402952
" />
</g><text x="57404000.000000" y="68572000.000000"
textLength="3242619.000000" font-size="1333333.000000" lengthAdjust="spacingAndGlyphs"
text-anchor="middle" opacity="0">SW1</text>
<g class="stroked-text"><desc>SW1</desc>
<path d="M56070666 68476761
L56213523 68524380
L56451619 68524380
L56546857 68476761
L56594476 68429142
L56642095 68333904
L56642095 68238666
L56594476 68143428
L56546857 68095809
L56451619 68048190
L56261142 68000571
L56165904 67952952
L56118285 67905333
L56070666 67810095
L56070666 67714857
L56118285 67619619
L56165904 67572000
L56261142 67524380
L56499238 67524380
L56642095 67572000
" />
<path d="M56975428 67524380
L57213523 68524380
L57404000 67810095
L57594476 68524380
L57832571 67524380
" />
<path d="M58737333 68524380
L58165904 68524380
" />
<path d="M58451619 68524380
L58451619 67524380
L58356380 67667238
L58261142 67762476
L58165904 67810095
" />
</g><text x="34874000.000000" y="45462000.000000"
textLength="10099762.000000" font-size="1333333.000000" lengthAdjust="spacingAndGlyphs"
text-anchor="middle" opacity="0">OLED Display</text>
<g class="stroked-text"><desc>OLED Display</desc>
<path d="M30350190 44414380
L30540666 44414380
L30635904 44462000
L30731142 44557238
L30778761 44747714
L30778761 45081047
L30731142 45271523
L30635904 45366761
L30540666 45414380
L30350190 45414380
L30254952 45366761
L30159714 45271523
L30112095 45081047
L30112095 44747714
L30159714 44557238
L30254952 44462000
L30350190 44414380
" />
<path d="M31683523 45414380
L31207333 45414380
L31207333 44414380
" />
<path d="M32016857 44890571
L32350190 44890571
" />
<path d="M32493047 45414380
L32016857 45414380
L32016857 44414380
L32493047 44414380
" />
<path d="M32921619 45414380
L32921619 44414380
L33159714 44414380
L33302571 44462000
L33397809 44557238
L33445428 44652476
L33493047 44842952
L33493047 44985809
L33445428 45176285
L33397809 45271523
L33302571 45366761
L33159714 45414380
L32921619 45414380
" />
<path d="M34683523 45414380
L34683523 44414380
L34921619 44414380
L35064476 44462000
L35159714 44557238
L35207333 44652476
L35254952 44842952
L35254952 44985809
L35207333 45176285
L35159714 45271523
L35064476 45366761
L34921619 45414380
L34683523 45414380
" />
<path d="M35683523 45414380
L35683523 44747714
" />
<path d="M35683523 44414380
L35635904 44462000
L35683523 44509619
L35731142 44462000
L35683523 44414380
L35683523 44509619
" />
<path d="M36112095 45366761
L36207333 45414380
L36397809 45414380
L36493047 45366761
L36540666 45271523
L36540666 45223904
L36493047 45128666
L36397809 45081047
L36254952 45081047
L36159714 45033428
L36112095 44938190
L36112095 44890571
L36159714 44795333
L36254952 44747714
L36397809 44747714
L36493047 44795333
" />
<path d="M36969238 44747714
L36969238 45747714
" />
<path d="M36969238 44795333
L37064476 44747714
L37254952 44747714
L37350190 44795333
L37397809 44842952
L37445428 44938190
L37445428 45223904
L37397809 45319142
L37350190 45366761
L37254952 45414380
L37064476 45414380
L36969238 45366761
" />
<path d="M38016857 45414380
L37921619 45366761
L37874000 45271523
L37874000 44414380
" />
<path d="M38826380 45414380
L38826380 44890571
L38778761 44795333
L38683523 44747714
L38493047 44747714
L38397809 44795333
" />
<path d="M38826380 45366761
L38731142 45414380
L38493047 45414380
L38397809 45366761
L38350190 45271523
L38350190 45176285
L38397809 45081047
L38493047 45033428
L38731142 45033428
L38826380 44985809
" />
<path d="M39207333 44747714
L39445428 45414380
" />
<path d="M39683523 44747714
L39445428 45414380
L39350190 45652476
L39302571 45700095
L39207333 45747714
" />
</g><text x="35184000.000000" y="42462000.000000"
textLength="4575952.000000" font-size="1333333.000000" lengthAdjust="spacingAndGlyphs"
text-anchor="middle" opacity="0">DISP1</text>
<g class="stroked-text"><desc>DISP1</desc>
<path d="M33231619 42414380
L33231619 41414380
L33469714 41414380
L33612571 41462000
L33707809 41557238
L33755428 41652476
L33803047 41842952
L33803047 41985809
L33755428 42176285
L33707809 42271523
L33612571 42366761
L33469714 42414380
L33231619 42414380
" />
<path d="M34231619 42414380
L34231619 41414380
" />
<path d="M34660190 42366761
L34803047 42414380
L35041142 42414380
L35136380 42366761
L35184000 42319142
L35231619 42223904
L35231619 42128666
L35184000 42033428
L35136380 41985809
L35041142 41938190
L34850666 41890571
L34755428 41842952
L34707809 41795333
L34660190 41700095
L34660190 41604857
L34707809 41509619
L34755428 41462000
L34850666 41414380
L35088761 41414380
L35231619 41462000
" />
<path d="M35660190 42414380
L35660190 41414380
L36041142 41414380
L36136380 41462000
L36184000 41509619
L36231619 41604857
L36231619 41747714
L36184000 41842952
L36136380 41890571
L36041142 41938190
L35660190 41938190
" />
<path d="M37184000 42414380
L36612571 42414380
" />
<path d="M36898285 42414380
L36898285 41414380
L36803047 41557238
L36707809 41652476
L36612571 41700095
" />
</g><text x="27424000.000000" y="73022000.000000"
textLength="6671190.000000" font-size="1333333.000000" lengthAdjust="spacingAndGlyphs"
text-anchor="middle" opacity="0">SW_Push</text>
<g class="stroked-text"><desc>SW_Push</desc>
<path d="M24376380 72926761
L24519238 72974380
L24757333 72974380
L24852571 72926761
L24900190 72879142
L24947809 72783904
L24947809 72688666
L24900190 72593428
L24852571 72545809
L24757333 72498190
L24566857 72450571
L24471619 72402952
L24424000 72355333
L24376380 72260095
L24376380 72164857
L24424000 72069619
L24471619 72022000
L24566857 71974380
L24804952 71974380
L24947809 72022000
" />
<path d="M25281142 71974380
L25519238 72974380
L25709714 72260095
L25900190 72974380
L26138285 71974380
" />
<path d="M26281142 73069619
L27043047 73069619
" />
<path d="M27281142 72974380
L27281142 71974380
L27662095 71974380
L27757333 72022000
L27804952 72069619
L27852571 72164857
L27852571 72307714
L27804952 72402952
L27757333 72450571
L27662095 72498190
L27281142 72498190
" />
<path d="M28709714 72307714
L28709714 72974380
" />
<path d="M28281142 72307714
L28281142 72831523
L28328761 72926761
L28424000 72974380
L28566857 72974380
L28662095 72926761
L28709714 72879142
" />
<path d="M29138285 72926761
L29233523 72974380
L29424000 72974380
L29519238 72926761
L29566857 72831523
L29566857 72783904
L29519238 72688666
L29424000 72641047
L29281142 72641047
L29185904 72593428
L29138285 72498190
L29138285 72450571
L29185904 72355333
L29281142 72307714
L29424000 72307714
L29519238 72355333
" />
<path d="M29995428 72974380
L29995428 71974380
" />
<path d="M30424000 72974380
L30424000 72450571
L30376380 72355333
L30281142 72307714
L30138285 72307714
L30043047 72355333
L29995428 72402952
" />
</g><text x="26924000.000000" y="68572000.000000"
textLength="3242619.000000" font-size="1333333.000000" lengthAdjust="spacingAndGlyphs"
text-anchor="middle" opacity="0">SW3</text>
<g class="stroked-text"><desc>SW3</desc>
<path d="M25590666 68476761
L25733523 68524380
L25971619 68524380
L26066857 68476761
L26114476 68429142
L26162095 68333904
L26162095 68238666
L26114476 68143428
L26066857 68095809
L25971619 68048190
L25781142 68000571
L25685904 67952952
L25638285 67905333
L25590666 67810095
L25590666 67714857
L25638285 67619619
L25685904 67572000
L25781142 67524380
L26019238 67524380
L26162095 67572000
" />
<path d="M26495428 67524380
L26733523 68524380
L26924000 67810095
L27114476 68524380
L27352571 67524380
" />
<path d="M27638285 67524380
L28257333 67524380
L27924000 67905333
L28066857 67905333
L28162095 67952952
L28209714 68000571
L28257333 68095809
L28257333 68333904
L28209714 68429142
L28162095 68476761
L28066857 68524380
L27781142 68524380
L27685904 68476761
L27638285 68429142
" />
</g><g transform="rotate(-90.000000 76088000.000000 52070000.000000)">
<text x="76088000.000000" y="52570000.000000"
textLength="1956905.000000" font-size="1333333.000000" lengthAdjust="spacingAndGlyphs"
text-anchor="middle" opacity="0">2k</text>
</g>
<g class="stroked-text"><desc>2k</desc>
<path d="M75635619 52760476
L75588000 52712857
L75540380 52617619
L75540380 52379523
L75588000 52284285
L75635619 52236666
L75730857 52189047
L75826095 52189047
L75968952 52236666
L76540380 52808095
L76540380 52189047
" />
<path d="M76540380 51760476
L75540380 51760476
" />
<path d="M76159428 51665238
L76540380 51379523
" />
<path d="M75873714 51379523
L76254666 51760476
" />
</g></g>
<g style="fill:#AFAFAF; fill-opacity:0.0; 
stroke:#AFAFAF; stroke-width:108000.000000; stroke-opacity:1; 
stroke-linecap:round; stroke-linejoin:round;">
<g transform="rotate(-90.000000 74168000.000000 52070000.000000)">
<text x="74168000.000000" y="52430000.000000"
textLength="1600714.000000" font-size="960000.000000" lengthAdjust="spacingAndGlyphs"
text-anchor="middle" opacity="0">R1</text>
</g>
<g class="stroked-text"><desc>R1</desc>
<path d="M74493714 52190000
L74150857 52430000
" />
<path d="M74493714 52601428
L73773714 52601428
L73773714 52327142
L73808000 52258571
L73842285 52224285
L73910857 52190000
L74013714 52190000
L74082285 52224285
L74116571 52258571
L74150857 52327142
L74150857 52601428
" />
<path d="M74493714 51504285
L74493714 51915714
" />
<path d="M74493714 51710000
L73773714 51710000
L73876571 51778571
L73945142 51847142
L73979428 51915714
" />
</g></g>
<g style="fill:#AFAFAF; fill-opacity:0.0; 
stroke:#AFAFAF; stroke-width:150000.000000; stroke-opacity:1; 
stroke-linecap:round; stroke-linejoin:round;">
<text x="12184000.000000" y="73022000.000000"
textLength="6616590.000000" font-size="1333333.000000" lengthAdjust="spacingAndGlyphs"
text-anchor="middle" opacity="0">SW_Push</text>
<g class="stroked-text"><desc>SW_Push</desc>
<path d="M9136380 72926761
L9279238 72974380
L9517333 72974380
L9612571 72926761
L9660190 72879142
L9707809 72783904
L9707809 72688666
L9660190 72593428
L9612571 72545809
L9517333 72498190
L9326857 72450571
L9231619 72402952
L9184000 72355333
L9136380 72260095
L9136380 72164857
L9184000 72069619
L9231619 72022000
L9326857 71974380
L9564952 71974380
L9707809 72022000
" />
<path d="M10041142 71974380
L10279238 72974380
L10469714 72260095
L10660190 72974380
L10898285 71974380
" />
<path d="M11041142 73069619
L11803047 73069619
" />
<path d="M12041142 72974380
L12041142 71974380
L12422095 71974380
L12517333 72022000
L12564952 72069619
L12612571 72164857
L12612571 72307714
L12564952 72402952
L12517333 72450571
L12422095 72498190
L12041142 72498190
" />
<path d="M13469714 72307714
L13469714 72974380
" />
<path d="M13041142 72307714
L13041142 72831523
L13088761 72926761
L13184000 72974380
L13326857 72974380
L13422095 72926761
L13469714 72879142
" />
<path d="M13898285 72926761
L13993523 72974380
L14184000 72974380
L14279238 72926761
L14326857 72831523
L14326857 72783904
L14279238 72688666
L14184000 72641047
L14041142 72641047
L13945904 72593428
L13898285 72498190
L13898285 72450571
L13945904 72355333
L14041142 72307714
L14184000 72307714
L14279238 72355333
" />
<path d="M14755428 72974380
L14755428 71974380
" />
<path d="M15184000 72974380
L15184000 72450571
L15136380 72355333
L15041142 72307714
L14898285 72307714
L14803047 72355333
L14755428 72402952
" />
</g><text x="11684000.000000" y="68572000.000000"
textLength="3242619.000000" font-size="1333333.000000" lengthAdjust="spacingAndGlyphs"
text-anchor="middle" opacity="0">SW4</text>
<g class="stroked-text"><desc>SW4</desc>
<path d="M10350666 68476761
L10493523 68524380
L10731619 68524380
L10826857 68476761
L10874476 68429142
L10922095 68333904
L10922095 68238666
L10874476 68143428
L10826857 68095809
L10731619 68048190
L10541142 68000571
L10445904 67952952
L10398285 67905333
L10350666 67810095
L10350666 67714857
L10398285 67619619
L10445904 67572000
L10541142 67524380
L10779238 67524380
L10922095 67572000
" />
<path d="M11255428 67524380
L11493523 68524380
L11684000 67810095
L11874476 68524380
L12112571 67524380
" />
<path d="M12922095 67857714
L12922095 68524380
" />
<path d="M12684000 67476761
L12445904 68191047
L13064952 68191047
" />
</g><text x="72644000.000000" y="51300000.000000"
textLength="2195000.000000" font-size="1333333.000000" lengthAdjust="spacingAndGlyphs"
text-anchor="middle" opacity="0">U0</text>
<g class="stroked-text"><desc>U0</desc>
<path d="M71882095 50252380
L71882095 51061904
L71929714 51157142
L71977333 51204761
L72072571 51252380
L72263047 51252380
L72358285 51204761
L72405904 51157142
L72453523 51061904
L72453523 50252380
" />
<path d="M73120190 50252380
L73215428 50252380
L73310666 50300000
L73358285 50347619
L73405904 50442857
L73453523 50633333
L73453523 50871428
L73405904 51061904
L73358285 51157142
L73310666 51204761
L73215428 51252380
L73120190 51252380
L73024952 51204761
L72977333 51157142
L72929714 51061904
L72882095 50871428
L72882095 50633333
L72929714 50442857
L72977333 50347619
L73024952 50300000
L73120190 50252380
" />
</g></g>
<g style="fill:#AFAFAF; fill-opacity:0.0; 
stroke:#AFAFAF; stroke-width:100000.000000; stroke-opacity:1; 
stroke-linecap:round; stroke-linejoin:round;">
<path d="M45164000 65072000
L45164000 71072000
" />
<path d="M42164000 65072000
L45164000 65072000
" />
<path d="M45164000 71072000
L39164000 71072000
" />
<path d="M39164000 65072000
L42164000 65072000
" />
<path d="M39164000 71072000
L39164000 65072000
" />
<circle cx="42164000.000000" cy="68072000.000000" r="2015564.000000" /> 
<path d="M54404000 65072000
L57404000 65072000
" />
<path d="M60404000 65072000
L60404000 71072000
" />
<path d="M54404000 71072000
L54404000 65072000
" />
<path d="M60404000 71072000
L54404000 71072000
" />
<path d="M57404000 65072000
L60404000 65072000
" />
<circle cx="57404000.000000" cy="68072000.000000" r="2015564.000000" /> 
<path d="M19394000 28722000
L19394000 27722000
" />
<path d="M19394000 57422000
L19394000 56422000
" />
<path d="M18894000 28222000
L19894000 28222000
" />
<path d="M18894000 56922000
L19894000 56922000
" />
<path d="M49394000 56922000
L50394000 56922000
" />
<path d="M49394000 28222000
L50394000 28222000
" />
<path d="M49894000 57422000
L49894000 56422000
" />
<path d="M49894000 28722000
L49894000 27722000
" />
<path d="M17394000 31072000
L51894000 31072000
" />
<path d="M51894000 31072000
L51894000 54072000
" />
<path d="M51894000 54072000
L17394000 54072000
" />
<path d="M17394000 54072000
L17394000 31072000
" />
<path d="M18934000 50922000
L50354000 50922000
" />
<path d="M50354000 50922000
L50354000 34222000
" />
<path d="M50354000 34222000
L18934000 34222000
" />
<path d="M18934000 34222000
L18934000 50922000
" />
<path d="M16894000 59422000
L52394000 59422000
" />
<path d="M52394000 59422000
L52394000 25722000
" />
<path d="M52394000 25722000
L16894000 25722000
" />
<path d="M16894000 25722000
L16894000 59422000
" />
<circle cx="49894000.000000" cy="56922000.000000" r="1500000.000000" /> 
<circle cx="19394000.000000" cy="56922000.000000" r="1500000.000000" /> 
<circle cx="49894000.000000" cy="28222000.000000" r="1500000.000000" /> 
<circle cx="19394000.000000" cy="28222000.000000" r="1500000.000000" /> 
<path d="M71120000 48260000
L71120000 50270000
" />
<path d="M70320000 53870000
L71920000 53870000
" />
<path d="M70320000 50270000
L70320000 53870000
" />
<path d="M71920000 50270000
L70320000 50270000
" />
<path d="M71120000 55880000
L71120000 53870000
" />
<path d="M71920000 53870000
L71920000 50270000
" />
<path d="M23924000 71072000
L23924000 65072000
" />
<path d="M29924000 71072000
L23924000 71072000
" />
<path d="M29924000 65072000
L29924000 71072000
" />
<path d="M23924000 65072000
L26924000 65072000
" />
<path d="M26924000 65072000
L29924000 65072000
" />
<circle cx="26924000.000000" cy="68072000.000000" r="2015564.000000" /> 
<path d="M74168000 48260000
L74168000 50270000
" />
<path d="M73368000 53870000
L74968000 53870000
" />
<path d="M74968000 53870000
L74968000 50270000
" />
<path d="M74968000 50270000
L73368000 50270000
" />
<path d="M73368000 50270000
L73368000 53870000
" />
<path d="M74168000 55880000
L74168000 53870000
" />
<path d="M8684000 71072000
L8684000 65072000
" />
<path d="M11684000 65072000
L14684000 65072000
" />
<path d="M14684000 65072000
L14684000 71072000
" />
<path d="M8684000 65072000
L11684000 65072000
" />
<path d="M14684000 71072000
L8684000 71072000
" />
<circle cx="11684000.000000" cy="68072000.000000" r="2015564.000000" /> 
<g >
</g>
<g >
</g>
<g >
</g>
<g >
</g>
<g >
</g>
<g >
</g>
<g >
</g>
<g >
</g>
<g >
</g>
<g >
</g>
<g >
</g>
<g >
</g>
<g >
</g>
<g >
</g>
<g >
</g>
<g >
</g>
<g >
</g>
<g >
</g>
<g >
</g>
<g >
</g>
<g >
</g>
<g >
</g>
<g >
</g>
<g >
</g>
<g >
</g>
<g >
</g>
<g >
</g>
<g >
</g>
<g >
</g>
</g>
<g style="fill:#000000; fill-opacity:0.0; 
stroke:#000000; stroke-width:100000.000000; stroke-opacity:1; 
stroke-linecap:round; stroke-linejoin:round;">
</g>
<g style="fill:#D0D2CD; fill-opacity:0.0; 
stroke:#D0D2CD; stroke-width:100000.000000; stroke-opacity:1; 
stroke-linecap:round; stroke-linejoin:round;">
<path d="M84836000 83312000
L3556000 83312000
" />
<path d="M3556000 83312000
L3556000 2540000
" />
<path d="M3556000 2540000
L84836000 2540000
" />
<path d="M84836000 2540000
L84836000 83312000
" />
<circle cx="80772000.000000" cy="6604000.000000" r="2540000.000000" /> 
<circle cx="7620000.000000" cy="79248000.000000" r="2540000.000000" /> 
<circle cx="7620000.000000" cy="6604000.000000" r="2540000.000000" /> 
<circle cx="80772000.000000" cy="79248000.000000" r="2540000.000000" /> 
<g >
</g>
<g >
</g>
<g >
</g>
<g >
</g>
<g >
</g>
<g >
</g>
<g >
</g>
<g >
</g>
<g >
</g>
<g >
</g>
<g >
</g>
<g >
</g>
<g >
</g>
<g >
</g>
<g >
</g>
<g >
</g>
<g >
</g>
<g >
</g>
<g >
</g>
<g >
</g>
<g >
</g>
<g >
</g>
<g >
</g>
<g >
</g>
<g >
</g>
<g >
</g>
<g >
</g>
<g >
</g>
<g >
</g>
</g> 
</svg>
