<?xml version="1.0" standalone="no"?>
 <!DOCTYPE svg PUBLIC "-//W3C//DTD SVG 1.1//EN" 
 "http://www.w3.org/Graphics/SVG/1.1/DTD/svg11.dtd"> 
<svg
  xmlns:svg="http://www.w3.org/2000/svg"
  xmlns="http://www.w3.org/2000/svg"
  xmlns:xlink="http://www.w3.org/1999/xlink"
  version="1.1"
  width="8.788400cm" height="8.585200cm" viewBox="0 0 87884000 85852000">
<title>SVG Picture created as clockschematic-B_Fab.svg date 2023/07/26 13:47:30 </title>
  <desc>Picture generated by PCBNEW </desc>
<g style="fill:#000000; fill-opacity:1.000000;stroke:#000000; stroke-opacity:1.000000;
stroke-linecap:round; stroke-linejoin:round;"
 transform="translate(0 0) scale(1 1)">
</g>
<g style="fill:#000000; fill-opacity:0.0; 
stroke:#000000; stroke-width:0.000000; stroke-opacity:1; 
stroke-linecap:round; stroke-linejoin:round;">
</g>
<g style="fill:#585D84; fill-opacity:0.0; 
stroke:#585D84; stroke-width:0.000000; stroke-opacity:1; 
stroke-linecap:round; stroke-linejoin:round;">
</g>
<g style="fill:#585D84; fill-opacity:0.0; 
stroke:#585D84; stroke-width:150000.000000; stroke-opacity:1; 
stroke-linecap:round; stroke-linejoin:round;">
<g transform="rotate(-90.000000 73040000.000000 52070000.000000)">
<text x="73040000.000000" y="52570000.000000"
transform="scale(-1 1) translate(-146080000.000000 0)"
textLength="1566905.000000" font-size="1333333.000000" lengthAdjust="spacingAndGlyphs"
text-anchor="middle" opacity="0">2k</text>
</g>
<g class="stroked-text"><desc>2k</desc>
<path d="M72587619 51379523
L72540000 51427142
L72492380 51522380
L72492380 51760476
L72540000 51855714
L72587619 51903333
L72682857 51950952
L72778095 51950952
L72920952 51903333
L73492380 51331904
L73492380 51950952
" />
<path d="M73492380 52379523
L72492380 52379523
" />
<path d="M73111428 52474761
L73492380 52760476
" />
<path d="M72825714 52760476
L73206666 52379523
" />
</g></g>
<g style="fill:#585D84; fill-opacity:0.0; 
stroke:#585D84; stroke-width:108000.000000; stroke-opacity:1; 
stroke-linecap:round; stroke-linejoin:round;">
<g transform="rotate(-90.000000 71120000.000000 52070000.000000)">
<text x="71120000.000000" y="52430000.000000"
transform="scale(-1 1) translate(-142240000.000000 0)"
textLength="1210714.000000" font-size="960000.000000" lengthAdjust="spacingAndGlyphs"
text-anchor="middle" opacity="0">R2</text>
</g>
<g class="stroked-text"><desc>R2</desc>
<path d="M71445714 51950000
L71102857 51710000
" />
<path d="M71445714 51538571
L70725714 51538571
L70725714 51812857
L70760000 51881428
L70794285 51915714
L70862857 51950000
L70965714 51950000
L71034285 51915714
L71068571 51881428
L71102857 51812857
L71102857 51538571
" />
<path d="M70794285 52224285
L70760000 52258571
L70725714 52327142
L70725714 52498571
L70760000 52567142
L70794285 52601428
L70862857 52635714
L70931428 52635714
L71034285 52601428
L71445714 52190000
L71445714 52635714
" />
</g></g>
<g style="fill:#585D84; fill-opacity:0.0; 
stroke:#585D84; stroke-width:150000.000000; stroke-opacity:1; 
stroke-linecap:round; stroke-linejoin:round;">
<text x="23114000.000000" y="55252000.000000"
transform="scale(-1 1) translate(-46228000.000000 0)"
textLength="859600.000000" font-size="1333333.000000" lengthAdjust="spacingAndGlyphs"
text-anchor="middle" opacity="0">R</text>
<g class="stroked-text"><desc>R</desc>
<path d="M22804476 55204380
L23137809 54728190
" />
<path d="M23375904 55204380
L23375904 54204380
L22994952 54204380
L22899714 54252000
L22852095 54299619
L22804476 54394857
L22804476 54537714
L22852095 54632952
L22899714 54680571
L22994952 54728190
L23375904 54728190
" />
</g></g>
<g style="fill:#585D84; fill-opacity:0.0; 
stroke:#585D84; stroke-width:108000.000000; stroke-opacity:1; 
stroke-linecap:round; stroke-linejoin:round;">
<text x="23114000.000000" y="53192000.000000"
transform="scale(-1 1) translate(-46228000.000000 0)"
textLength="1210714.000000" font-size="960000.000000" lengthAdjust="spacingAndGlyphs"
text-anchor="middle" opacity="0">R3</text>
<g class="stroked-text"><desc>R3</desc>
<path d="M23234000 53157714
L23474000 52814857
" />
<path d="M23645428 53157714
L23645428 52437714
L23371142 52437714
L23302571 52472000
L23268285 52506285
L23234000 52574857
L23234000 52677714
L23268285 52746285
L23302571 52780571
L23371142 52814857
L23645428 52814857
" />
<path d="M22994000 52437714
L22548285 52437714
L22788285 52712000
L22685428 52712000
L22616857 52746285
L22582571 52780571
L22548285 52849142
L22548285 53020571
L22582571 53089142
L22616857 53123428
L22685428 53157714
L22891142 53157714
L22959714 53123428
L22994000 53089142
" />
</g></g>
<g style="fill:#585D84; fill-opacity:0.0; 
stroke:#585D84; stroke-width:150000.000000; stroke-opacity:1; 
stroke-linecap:round; stroke-linejoin:round;">
<g transform="rotate(-90.000000 33834000.000000 60954554.000000)">
<text x="33834000.000000" y="61454554.000000"
transform="scale(-1 1) translate(-67668000.000000 0)"
textLength="859600.000000" font-size="1333333.000000" lengthAdjust="spacingAndGlyphs"
text-anchor="middle" opacity="0">C</text>
</g>
<g class="stroked-text"><desc>C</desc>
<path d="M34191142 61264077
L34238761 61216458
L34286380 61073601
L34286380 60978363
L34238761 60835506
L34143523 60740268
L34048285 60692649
L33857809 60645030
L33714952 60645030
L33524476 60692649
L33429238 60740268
L33334000 60835506
L33286380 60978363
L33286380 61073601
L33334000 61216458
L33381619 61264077
" />
</g></g>
<g style="fill:#585D84; fill-opacity:0.0; 
stroke:#585D84; stroke-width:120000.000000; stroke-opacity:1; 
stroke-linecap:round; stroke-linejoin:round;">
<g transform="rotate(-90.000000 37084000.000000 60954554.000000)">
<text x="37084000.000000" y="61354554.000000"
transform="scale(-1 1) translate(-74168000.000000 0)"
textLength="1366905.000000" font-size="1066666.000000" lengthAdjust="spacingAndGlyphs"
text-anchor="middle" opacity="0">C3</text>
</g>
<g class="stroked-text"><desc>C3</desc>
<path d="M37369714 60821220
L37407809 60783125
L37445904 60668839
L37445904 60592649
L37407809 60478363
L37331619 60402173
L37255428 60364077
L37103047 60325982
L36988761 60325982
L36836380 60364077
L36760190 60402173
L36684000 60478363
L36645904 60592649
L36645904 60668839
L36684000 60783125
L36722095 60821220
" />
<path d="M36645904 61087887
L36645904 61583125
L36950666 61316458
L36950666 61430744
L36988761 61506934
L37026857 61545030
L37103047 61583125
L37293523 61583125
L37369714 61545030
L37407809 61506934
L37445904 61430744
L37445904 61202173
L37407809 61125982
L37369714 61087887
" />
</g></g>
<g style="fill:#585D84; fill-opacity:0.0; 
stroke:#585D84; stroke-width:150000.000000; stroke-opacity:1; 
stroke-linecap:round; stroke-linejoin:round;">
<g transform="rotate(-90.000000 33834000.000000 55992000.000000)">
<text x="33834000.000000" y="56492000.000000"
transform="scale(-1 1) translate(-67668000.000000 0)"
textLength="844000.000000" font-size="1333333.000000" lengthAdjust="spacingAndGlyphs"
text-anchor="middle" opacity="0">C</text>
</g>
<g class="stroked-text"><desc>C</desc>
<path d="M34191142 56301523
L34238761 56253904
L34286380 56111047
L34286380 56015809
L34238761 55872952
L34143523 55777714
L34048285 55730095
L33857809 55682476
L33714952 55682476
L33524476 55730095
L33429238 55777714
L33334000 55872952
L33286380 56015809
L33286380 56111047
L33334000 56253904
L33381619 56301523
" />
</g></g>
<g style="fill:#585D84; fill-opacity:0.0; 
stroke:#585D84; stroke-width:120000.000000; stroke-opacity:1; 
stroke-linecap:round; stroke-linejoin:round;">
<g transform="rotate(-90.000000 37084000.000000 55992000.000000)">
<text x="37084000.000000" y="56392000.000000"
transform="scale(-1 1) translate(-74168000.000000 0)"
textLength="1366905.000000" font-size="1066666.000000" lengthAdjust="spacingAndGlyphs"
text-anchor="middle" opacity="0">C1</text>
</g>
<g class="stroked-text"><desc>C1</desc>
<path d="M37369714 55858666
L37407809 55820571
L37445904 55706285
L37445904 55630095
L37407809 55515809
L37331619 55439619
L37255428 55401523
L37103047 55363428
L36988761 55363428
L36836380 55401523
L36760190 55439619
L36684000 55515809
L36645904 55630095
L36645904 55706285
L36684000 55820571
L36722095 55858666
" />
<path d="M37445904 56620571
L37445904 56163428
" />
<path d="M37445904 56392000
L36645904 56392000
L36760190 56315809
L36836380 56239619
L36874476 56163428
" />
</g></g>
<g style="fill:#585D84; fill-opacity:0.0; 
stroke:#585D84; stroke-width:150000.000000; stroke-opacity:1; 
stroke-linecap:round; stroke-linejoin:round;">
<g transform="rotate(-90.000000 19924000.000000 17272000.000000)">
<text x="19924000.000000" y="17772000.000000"
transform="scale(-1 1) translate(-39848000.000000 0)"
textLength="1605905.000000" font-size="1333333.000000" lengthAdjust="spacingAndGlyphs"
text-anchor="middle" opacity="0">2k</text>
</g>
<g class="stroked-text"><desc>2k</desc>
<path d="M19471619 16581523
L19424000 16629142
L19376380 16724380
L19376380 16962476
L19424000 17057714
L19471619 17105333
L19566857 17152952
L19662095 17152952
L19804952 17105333
L20376380 16533904
L20376380 17152952
" />
<path d="M20376380 17581523
L19376380 17581523
" />
<path d="M19995428 17676761
L20376380 17962476
" />
<path d="M19709714 17962476
L20090666 17581523
" />
</g></g>
<g style="fill:#585D84; fill-opacity:0.0; 
stroke:#585D84; stroke-width:108000.000000; stroke-opacity:1; 
stroke-linecap:round; stroke-linejoin:round;">
<g transform="rotate(-90.000000 21844000.000000 17272000.000000)">
<text x="21844000.000000" y="17632000.000000"
transform="scale(-1 1) translate(-43688000.000000 0)"
textLength="1210714.000000" font-size="960000.000000" lengthAdjust="spacingAndGlyphs"
text-anchor="middle" opacity="0">R8</text>
</g>
<g class="stroked-text"><desc>R8</desc>
<path d="M22169714 17152000
L21826857 16912000
" />
<path d="M22169714 16740571
L21449714 16740571
L21449714 17014857
L21484000 17083428
L21518285 17117714
L21586857 17152000
L21689714 17152000
L21758285 17117714
L21792571 17083428
L21826857 17014857
L21826857 16740571
" />
<path d="M21758285 17563428
L21724000 17494857
L21689714 17460571
L21621142 17426285
L21586857 17426285
L21518285 17460571
L21484000 17494857
L21449714 17563428
L21449714 17700571
L21484000 17769142
L21518285 17803428
L21586857 17837714
L21621142 17837714
L21689714 17803428
L21724000 17769142
L21758285 17700571
L21758285 17563428
L21792571 17494857
L21826857 17460571
L21895428 17426285
L22032571 17426285
L22101142 17460571
L22135428 17494857
L22169714 17563428
L22169714 17700571
L22135428 17769142
L22101142 17803428
L22032571 17837714
L21895428 17837714
L21826857 17803428
L21792571 17769142
L21758285 17700571
" />
</g></g>
<g style="fill:#585D84; fill-opacity:0.0; 
stroke:#585D84; stroke-width:150000.000000; stroke-opacity:1; 
stroke-linecap:round; stroke-linejoin:round;">
<g transform="rotate(-90.000000 85644000.000000 17780000.000000)">
<text x="85644000.000000" y="18280000.000000"
transform="scale(-1 1) translate(-171288000.000000 0)"
textLength="8478648.000000" font-size="1333333.000000" lengthAdjust="spacingAndGlyphs"
text-anchor="middle" opacity="0">Barrel_Jack</text>
</g>
<g class="stroked-text"><desc>Barrel_Jack</desc>
<path d="M85572571 14041904
L85620190 14184761
L85667809 14232380
L85763047 14280000
L85905904 14280000
L86001142 14232380
L86048761 14184761
L86096380 14089523
L86096380 13708571
L85096380 13708571
L85096380 14041904
L85144000 14137142
L85191619 14184761
L85286857 14232380
L85382095 14232380
L85477333 14184761
L85524952 14137142
L85572571 14041904
L85572571 13708571
" />
<path d="M86096380 15137142
L85572571 15137142
L85477333 15089523
L85429714 14994285
L85429714 14803809
L85477333 14708571
" />
<path d="M86048761 15137142
L86096380 15041904
L86096380 14803809
L86048761 14708571
L85953523 14660952
L85858285 14660952
L85763047 14708571
L85715428 14803809
L85715428 15041904
L85667809 15137142
" />
<path d="M86096380 15613333
L85429714 15613333
" />
<path d="M85620190 15613333
L85524952 15660952
L85477333 15708571
L85429714 15803809
L85429714 15899047
" />
<path d="M86096380 16232380
L85429714 16232380
" />
<path d="M85620190 16232380
L85524952 16280000
L85477333 16327619
L85429714 16422857
L85429714 16518095
" />
<path d="M86048761 17232380
L86096380 17137142
L86096380 16946666
L86048761 16851428
L85953523 16803809
L85572571 16803809
L85477333 16851428
L85429714 16946666
L85429714 17137142
L85477333 17232380
L85572571 17280000
L85667809 17280000
L85763047 16803809
" />
<path d="M86096380 17851428
L86048761 17756190
L85953523 17708571
L85096380 17708571
" />
<path d="M86191619 17994285
L86191619 18756190
" />
<path d="M85096380 19280000
L85810666 19280000
L85953523 19232380
L86048761 19137142
L86096380 18994285
L86096380 18899047
" />
<path d="M86096380 20184761
L85572571 20184761
L85477333 20137142
L85429714 20041904
L85429714 19851428
L85477333 19756190
" />
<path d="M86048761 20184761
L86096380 20089523
L86096380 19851428
L86048761 19756190
L85953523 19708571
L85858285 19708571
L85763047 19756190
L85715428 19851428
L85715428 20089523
L85667809 20184761
" />
<path d="M86048761 21089523
L86096380 20994285
L86096380 20803809
L86048761 20708571
L86001142 20660952
L85905904 20613333
L85620190 20613333
L85524952 20660952
L85477333 20708571
L85429714 20803809
L85429714 20994285
L85477333 21089523
" />
<path d="M86096380 21518095
L85096380 21518095
" />
<path d="M85715428 21613333
L86096380 21899047
" />
<path d="M85429714 21899047
L85810666 21518095
" />
</g><g transform="rotate(-90.000000 78144000.000000 17780000.000000)">
<text x="78144000.000000" y="18280000.000000"
transform="scale(-1 1) translate(-156288000.000000 0)"
textLength="1519286.000000" font-size="1333333.000000" lengthAdjust="spacingAndGlyphs"
text-anchor="middle" opacity="0">J1</text>
</g>
<g class="stroked-text"><desc>J1</desc>
<path d="M77596380 17446666
L78310666 17446666
L78453523 17399047
L78548761 17303809
L78596380 17160952
L78596380 17065714
" />
<path d="M78596380 18446666
L78596380 17875238
" />
<path d="M78596380 18160952
L77596380 18160952
L77739238 18065714
L77834476 17970476
L77882095 17875238
" />
</g><g transform="rotate(-90.000000 14934000.000000 26432000.000000)">
<text x="14934000.000000" y="26932000.000000"
transform="scale(-1 1) translate(-29868000.000000 0)"
textLength="3614524.000000" font-size="1333333.000000" lengthAdjust="spacingAndGlyphs"
text-anchor="middle" opacity="0">10µF</text>
</g>
<g class="stroked-text"><desc>10µF</desc>
<path d="M15386380 25289142
L15386380 24717714
" />
<path d="M15386380 25003428
L14386380 25003428
L14529238 24908190
L14624476 24812952
L14672095 24717714
" />
<path d="M14386380 25908190
L14386380 26003428
L14434000 26098666
L14481619 26146285
L14576857 26193904
L14767333 26241523
L15005428 26241523
L15195904 26193904
L15291142 26146285
L15338761 26098666
L15386380 26003428
L15386380 25908190
L15338761 25812952
L15291142 25765333
L15195904 25717714
L15005428 25670095
L14767333 25670095
L14576857 25717714
L14481619 25765333
L14434000 25812952
L14386380 25908190
" />
<path d="M14719714 26670095
L15719714 26670095
" />
<path d="M15243523 27146285
L15338761 27193904
L15386380 27289142
" />
<path d="M15243523 26670095
L15338761 26717714
L15386380 26812952
L15386380 27003428
L15338761 27098666
L15243523 27146285
L14719714 27146285
" />
<path d="M14862571 28051047
L14862571 27717714
" />
<path d="M15386380 27717714
L14386380 27717714
L14386380 28193904
" />
</g></g>
<g style="fill:#585D84; fill-opacity:0.0; 
stroke:#585D84; stroke-width:120000.000000; stroke-opacity:1; 
stroke-linecap:round; stroke-linejoin:round;">
<g transform="rotate(-90.000000 11684000.000000 26432000.000000)">
<text x="11684000.000000" y="26832000.000000"
transform="scale(-1 1) translate(-23368000.000000 0)"
textLength="1366905.000000" font-size="1066666.000000" lengthAdjust="spacingAndGlyphs"
text-anchor="middle" opacity="0">C6</text>
</g>
<g class="stroked-text"><desc>C6</desc>
<path d="M11969714 26298666
L12007809 26260571
L12045904 26146285
L12045904 26070095
L12007809 25955809
L11931619 25879619
L11855428 25841523
L11703047 25803428
L11588761 25803428
L11436380 25841523
L11360190 25879619
L11284000 25955809
L11245904 26070095
L11245904 26146285
L11284000 26260571
L11322095 26298666
" />
<path d="M11245904 26984380
L11245904 26832000
L11284000 26755809
L11322095 26717714
L11436380 26641523
L11588761 26603428
L11893523 26603428
L11969714 26641523
L12007809 26679619
L12045904 26755809
L12045904 26908190
L12007809 26984380
L11969714 27022476
L11893523 27060571
L11703047 27060571
L11626857 27022476
L11588761 26984380
L11550666 26908190
L11550666 26755809
L11588761 26679619
L11626857 26641523
L11703047 26603428
" />
</g></g>
<g style="fill:#585D84; fill-opacity:0.0; 
stroke:#585D84; stroke-width:150000.000000; stroke-opacity:1; 
stroke-linecap:round; stroke-linejoin:round;">
<g transform="rotate(-315.000000 36576000.000000 16764000.000000)">
<text x="36576000.000000" y="17264000.000000"
transform="scale(-1 1) translate(-73152000.000000 0)"
textLength="13653524.000000" font-size="1333333.000000" lengthAdjust="spacingAndGlyphs"
text-anchor="middle" opacity="0">RDA5807M_Module</text>
</g>
<g class="stroked-text"><desc>RDA5807M_Module</desc>
<path d="M40566102 21393865
L41138522 21292850
" />
<path d="M40970163 21797926
L41677270 21090820
L41407896 20821446
L41306881 20787774
L41239537 20787774
L41138522 20821446
L41037507 20922461
L41003835 21023476
L41003835 21090820
L41037507 21191835
L41306881 21461209
" />
<path d="M40263056 21090820
L40970163 20383713
L40801804 20215354
L40667117 20148011
L40532430 20148011
L40431415 20181682
L40263056 20282698
L40162041 20383713
L40061026 20552072
L40027354 20653087
L40027354 20787774
L40094698 20922461
L40263056 21090820
" />
<path d="M39791652 20215354
L39454934 19878637
" />
<path d="M39656965 20484728
L40128369 19541919
L39185560 20013324
" />
<path d="M39320247 18733797
L39656965 19070514
L39353919 19440904
L39353919 19373560
L39320247 19272545
L39151888 19104186
L39050873 19070514
L38983530 19070514
L38882514 19104186
L38714156 19272545
L38680484 19373560
L38680484 19440904
L38714156 19541919
L38882514 19710278
L38983530 19743950
L39050873 19743950
" />
<path d="M38579469 18599110
L38680484 18632782
L38747827 18632782
L38848843 18599110
L38882514 18565438
L38916186 18464423
L38916186 18397079
L38882514 18296064
L38747827 18161377
L38646812 18127705
L38579469 18127705
L38478453 18161377
L38444782 18195049
L38411110 18296064
L38411110 18363408
L38444782 18464423
L38579469 18599110
L38613140 18700125
L38613140 18767469
L38579469 18868484
L38444782 19003171
L38343766 19036843
L38276423 19036843
L38175408 19003171
L38040721 18868484
L38007049 18767469
L38007049 18700125
L38040721 18599110
L38175408 18464423
L38276423 18430751
L38343766 18430751
L38444782 18464423
" />
<path d="M38175408 17588957
L38108064 17521614
L38007049 17487942
L37939705 17487942
L37838690 17521614
L37670331 17622629
L37501973 17790988
L37400957 17959347
L37367286 18060362
L37367286 18127705
L37400957 18228721
L37468301 18296064
L37569316 18329736
L37636660 18329736
L37737675 18296064
L37906034 18195049
L38074392 18026690
L38175408 17858331
L38209079 17757316
L38209079 17689973
L38175408 17588957
" />
<path d="M37704003 17117553
L37232599 16646148
L36828538 17656301
" />
<path d="M36256118 17083881
L36963225 16376774
L36222446 16646148
L36491820 15905370
L35784713 16612477
" />
<path d="M35549011 16511461
L35010263 15972713
" />
<path d="M34909248 15737011
L35616355 15029904
L34875576 15299278
L35144950 14558500
L34437843 15265607
" />
<path d="M34000111 14827874
L34101126 14861546
L34168469 14861546
L34269485 14827874
L34471515 14625843
L34505187 14524828
L34505187 14457485
L34471515 14356469
L34370500 14255454
L34269485 14221782
L34202141 14221782
L34101126 14255454
L33899095 14457485
L33865424 14558500
L33865424 14625843
L33899095 14726859
L34000111 14827874
" />
<path d="M33158317 13986080
L33865424 13278973
" />
<path d="M33191988 13952408
L33225660 14053424
L33360347 14188111
L33461362 14221782
L33528706 14221782
L33629721 14188111
L33831752 13986080
L33865424 13885065
L33865424 13817721
L33831752 13716706
L33697065 13582019
L33596049 13548347
" />
<path d="M32989958 12874912
L32518553 13346317
" />
<path d="M33293004 13177958
L32922614 13548347
L32821599 13582019
L32720584 13548347
L32619569 13447332
L32585897 13346317
L32585897 13278973
" />
<path d="M32080821 12908584
L32181836 12942256
L32282851 12908584
L32888943 12302492
" />
<path d="M31575744 12336164
L31609416 12437179
L31744103 12571866
L31845118 12605538
L31946134 12571866
L32215508 12302492
L32249179 12201477
L32215508 12100462
L32080821 11965775
L31979805 11932103
L31878790 11965775
L31811447 12033118
L32080821 12437179
" />
</g><text x="40076000.000000" y="15264000.000000"
transform="scale(-1 1) translate(-80152000.000000 0)"
textLength="1805000.000000" font-size="1333333.000000" lengthAdjust="spacingAndGlyphs"
text-anchor="middle" opacity="0">U1</text>
<g class="stroked-text"><desc>U1</desc>
<path d="M40837904 14216380
L40837904 15025904
L40790285 15121142
L40742666 15168761
L40647428 15216380
L40456952 15216380
L40361714 15168761
L40314095 15121142
L40266476 15025904
L40266476 14216380
" />
<path d="M39266476 15216380
L39837904 15216380
" />
<path d="M39552190 15216380
L39552190 14216380
L39647428 14359238
L39742666 14454476
L39837904 14502095
" />
</g><g transform="rotate(-90.000000 13604000.000000 17272000.000000)">
<text x="13604000.000000" y="17772000.000000"
transform="scale(-1 1) translate(-27208000.000000 0)"
textLength="2519286.000000" font-size="1333333.000000" lengthAdjust="spacingAndGlyphs"
text-anchor="middle" opacity="0">10k</text>
</g>
<g class="stroked-text"><desc>10k</desc>
<path d="M14056380 16676761
L14056380 16105333
" />
<path d="M14056380 16391047
L13056380 16391047
L13199238 16295809
L13294476 16200571
L13342095 16105333
" />
<path d="M13056380 17295809
L13056380 17391047
L13104000 17486285
L13151619 17533904
L13246857 17581523
L13437333 17629142
L13675428 17629142
L13865904 17581523
L13961142 17533904
L14008761 17486285
L14056380 17391047
L14056380 17295809
L14008761 17200571
L13961142 17152952
L13865904 17105333
L13675428 17057714
L13437333 17057714
L13246857 17105333
L13151619 17152952
L13104000 17200571
L13056380 17295809
" />
<path d="M14056380 18057714
L13056380 18057714
" />
<path d="M13675428 18152952
L14056380 18438666
" />
<path d="M13389714 18438666
L13770666 18057714
" />
</g></g>
<g style="fill:#585D84; fill-opacity:0.0; 
stroke:#585D84; stroke-width:108000.000000; stroke-opacity:1; 
stroke-linecap:round; stroke-linejoin:round;">
<g transform="rotate(-90.000000 11684000.000000 17272000.000000)">
<text x="11684000.000000" y="17632000.000000"
transform="scale(-1 1) translate(-23368000.000000 0)"
textLength="1210714.000000" font-size="960000.000000" lengthAdjust="spacingAndGlyphs"
text-anchor="middle" opacity="0">R5</text>
</g>
<g class="stroked-text"><desc>R5</desc>
<path d="M12009714 17152000
L11666857 16912000
" />
<path d="M12009714 16740571
L11289714 16740571
L11289714 17014857
L11324000 17083428
L11358285 17117714
L11426857 17152000
L11529714 17152000
L11598285 17117714
L11632571 17083428
L11666857 17014857
L11666857 16740571
" />
<path d="M11289714 17803428
L11289714 17460571
L11632571 17426285
L11598285 17460571
L11564000 17529142
L11564000 17700571
L11598285 17769142
L11632571 17803428
L11701142 17837714
L11872571 17837714
L11941142 17803428
L11975428 17769142
L12009714 17700571
L12009714 17529142
L11975428 17460571
L11941142 17426285
" />
</g></g>
<g style="fill:#585D84; fill-opacity:0.0; 
stroke:#585D84; stroke-width:152400.000000; stroke-opacity:1; 
stroke-linecap:round; stroke-linejoin:round;">
<g transform="rotate(-90.000000 4684000.000000 47752000.000000)">
<text x="4684000.000000" y="48260000.000000"
transform="scale(-1 1) translate(-9368000.000000 0)"
textLength="5858838.000000" font-size="1354666.000000" lengthAdjust="spacingAndGlyphs"
text-anchor="middle" opacity="0">Speaker</text>
</g>
<g class="stroked-text"><desc>Speaker</desc>
<path d="M5095238 44945904
L5143619 45091047
L5143619 45332952
L5095238 45429714
L5046857 45478095
L4950095 45526476
L4853333 45526476
L4756571 45478095
L4708190 45429714
L4659809 45332952
L4611428 45139428
L4563047 45042666
L4514666 44994285
L4417904 44945904
L4321142 44945904
L4224380 44994285
L4176000 45042666
L4127619 45139428
L4127619 45381333
L4176000 45526476
" />
<path d="M4466285 45961904
L5482285 45961904
" />
<path d="M4514666 45961904
L4466285 46058666
L4466285 46252190
L4514666 46348952
L4563047 46397333
L4659809 46445714
L4950095 46445714
L5046857 46397333
L5095238 46348952
L5143619 46252190
L5143619 46058666
L5095238 45961904
" />
<path d="M5095238 47268190
L5143619 47171428
L5143619 46977904
L5095238 46881142
L4998476 46832761
L4611428 46832761
L4514666 46881142
L4466285 46977904
L4466285 47171428
L4514666 47268190
L4611428 47316571
L4708190 47316571
L4804952 46832761
" />
<path d="M5143619 48187428
L4611428 48187428
L4514666 48139047
L4466285 48042285
L4466285 47848761
L4514666 47752000
" />
<path d="M5095238 48187428
L5143619 48090666
L5143619 47848761
L5095238 47752000
L4998476 47703619
L4901714 47703619
L4804952 47752000
L4756571 47848761
L4756571 48090666
L4708190 48187428
" />
<path d="M5143619 48671238
L4127619 48671238
" />
<path d="M4756571 48768000
L5143619 49058285
" />
<path d="M4466285 49058285
L4853333 48671238
" />
<path d="M5095238 49880761
L5143619 49784000
L5143619 49590476
L5095238 49493714
L4998476 49445333
L4611428 49445333
L4514666 49493714
L4466285 49590476
L4466285 49784000
L4514666 49880761
L4611428 49929142
L4708190 49929142
L4804952 49445333
" />
<path d="M5143619 50364571
L4466285 50364571
" />
<path d="M4659809 50364571
L4563047 50412952
L4514666 50461333
L4466285 50558095
L4466285 50654857
" />
</g><g transform="rotate(-90.000000 4684000.000000 57912000.000000)">
<text x="4684000.000000" y="58420000.000000"
transform="scale(-1 1) translate(-9368000.000000 0)"
textLength="5801118.000000" font-size="1354666.000000" lengthAdjust="spacingAndGlyphs"
text-anchor="middle" opacity="0">Speaker</text>
</g>
<g class="stroked-text"><desc>Speaker</desc>
<path d="M5095238 55105904
L5143619 55251047
L5143619 55492952
L5095238 55589714
L5046857 55638095
L4950095 55686476
L4853333 55686476
L4756571 55638095
L4708190 55589714
L4659809 55492952
L4611428 55299428
L4563047 55202666
L4514666 55154285
L4417904 55105904
L4321142 55105904
L4224380 55154285
L4176000 55202666
L4127619 55299428
L4127619 55541333
L4176000 55686476
" />
<path d="M4466285 56121904
L5482285 56121904
" />
<path d="M4514666 56121904
L4466285 56218666
L4466285 56412190
L4514666 56508952
L4563047 56557333
L4659809 56605714
L4950095 56605714
L5046857 56557333
L5095238 56508952
L5143619 56412190
L5143619 56218666
L5095238 56121904
" />
<path d="M5095238 57428190
L5143619 57331428
L5143619 57137904
L5095238 57041142
L4998476 56992761
L4611428 56992761
L4514666 57041142
L4466285 57137904
L4466285 57331428
L4514666 57428190
L4611428 57476571
L4708190 57476571
L4804952 56992761
" />
<path d="M5143619 58347428
L4611428 58347428
L4514666 58299047
L4466285 58202285
L4466285 58008761
L4514666 57912000
" />
<path d="M5095238 58347428
L5143619 58250666
L5143619 58008761
L5095238 57912000
L4998476 57863619
L4901714 57863619
L4804952 57912000
L4756571 58008761
L4756571 58250666
L4708190 58347428
" />
<path d="M5143619 58831238
L4127619 58831238
" />
<path d="M4756571 58928000
L5143619 59218285
" />
<path d="M4466285 59218285
L4853333 58831238
" />
<path d="M5095238 60040761
L5143619 59944000
L5143619 59750476
L5095238 59653714
L4998476 59605333
L4611428 59605333
L4514666 59653714
L4466285 59750476
L4466285 59944000
L4514666 60040761
L4611428 60089142
L4708190 60089142
L4804952 59605333
" />
<path d="M5143619 60524571
L4466285 60524571
" />
<path d="M4659809 60524571
L4563047 60572952
L4514666 60621333
L4466285 60718095
L4466285 60814857
" />
</g></g>
<g style="fill:#585D84; fill-opacity:0.0; 
stroke:#585D84; stroke-width:150000.000000; stroke-opacity:1; 
stroke-linecap:round; stroke-linejoin:round;">
<text x="23114000.000000" y="62872000.000000"
transform="scale(-1 1) translate(-46228000.000000 0)"
textLength="801880.000000" font-size="1333333.000000" lengthAdjust="spacingAndGlyphs"
text-anchor="middle" opacity="0">R</text>
<g class="stroked-text"><desc>R</desc>
<path d="M22804476 62824380
L23137809 62348190
" />
<path d="M23375904 62824380
L23375904 61824380
L22994952 61824380
L22899714 61872000
L22852095 61919619
L22804476 62014857
L22804476 62157714
L22852095 62252952
L22899714 62300571
L22994952 62348190
L23375904 62348190
" />
</g></g>
<g style="fill:#585D84; fill-opacity:0.0; 
stroke:#585D84; stroke-width:108000.000000; stroke-opacity:1; 
stroke-linecap:round; stroke-linejoin:round;">
<text x="23114000.000000" y="60812000.000000"
transform="scale(-1 1) translate(-46228000.000000 0)"
textLength="1210714.000000" font-size="960000.000000" lengthAdjust="spacingAndGlyphs"
text-anchor="middle" opacity="0">R4</text>
<g class="stroked-text"><desc>R4</desc>
<path d="M23234000 60777714
L23474000 60434857
" />
<path d="M23645428 60777714
L23645428 60057714
L23371142 60057714
L23302571 60092000
L23268285 60126285
L23234000 60194857
L23234000 60297714
L23268285 60366285
L23302571 60400571
L23371142 60434857
L23645428 60434857
" />
<path d="M22616857 60297714
L22616857 60777714
" />
<path d="M22788285 60023428
L22959714 60537714
L22514000 60537714
" />
</g></g>
<g style="fill:#585D84; fill-opacity:0.0; 
stroke:#585D84; stroke-width:150000.000000; stroke-opacity:1; 
stroke-linecap:round; stroke-linejoin:round;">
<text x="42164000.000000" y="48252007.000000"
transform="scale(-1 1) translate(-84328000.000000 0)"
textLength="4669201.000000" font-size="1333354.000000" lengthAdjust="spacingAndGlyphs"
text-anchor="middle" opacity="0">LM386</text>
<g class="stroked-text"><desc>LM386</desc>
<path d="M43854503 48204387
L44330701 48204387
L44330701 47204371
" />
<path d="M43521164 48204387
L43521164 47204371
L43187825 47918668
L42854487 47204371
L42854487 48204387
" />
<path d="M42473528 47204371
L41854471 47204371
L42187809 47585329
L42044950 47585329
L41949710 47632949
L41902091 47680569
L41854471 47775808
L41854471 48013907
L41902091 48109147
L41949710 48156767
L42044950 48204387
L42330669 48204387
L42425908 48156767
L42473528 48109147
" />
<path d="M41283033 47632949
L41378273 47585329
L41425892 47537709
L41473512 47442470
L41473512 47394850
L41425892 47299610
L41378273 47251991
L41283033 47204371
L41092554 47204371
L40997314 47251991
L40949694 47299610
L40902075 47394850
L40902075 47442470
L40949694 47537709
L40997314 47585329
L41092554 47632949
L41283033 47632949
L41378273 47680569
L41425892 47728189
L41473512 47823428
L41473512 48013907
L41425892 48109147
L41378273 48156767
L41283033 48204387
L41092554 48204387
L40997314 48156767
L40949694 48109147
L40902075 48013907
L40902075 47823428
L40949694 47728189
L40997314 47680569
L41092554 47632949
" />
<path d="M40044918 47204371
L40235397 47204371
L40330637 47251991
L40378257 47299610
L40473496 47442470
L40521116 47632949
L40521116 48013907
L40473496 48109147
L40425876 48156767
L40330637 48204387
L40140158 48204387
L40044918 48156767
L39997298 48109147
L39949678 48013907
L39949678 47775808
L39997298 47680569
L40044918 47632949
L40140158 47585329
L40330637 47585329
L40425876 47632949
L40473496 47680569
L40521116 47775808
" />
</g><g transform="rotate(-90.000000 35254000.000000 55979401.000000)">
<text x="35254000.000000" y="56479401.000000"
transform="scale(-1 1) translate(-70508000.000000 0)"
textLength="805000.000000" font-size="1333333.000000" lengthAdjust="spacingAndGlyphs"
text-anchor="middle" opacity="0">C</text>
</g>
<g class="stroked-text"><desc>C</desc>
<path d="M35611142 56288924
L35658761 56241305
L35706380 56098448
L35706380 56003210
L35658761 55860353
L35563523 55765115
L35468285 55717496
L35277809 55669877
L35134952 55669877
L34944476 55717496
L34849238 55765115
L34754000 55860353
L34706380 56003210
L34706380 56098448
L34754000 56241305
L34801619 56288924
" />
</g></g>
<g style="fill:#585D84; fill-opacity:0.0; 
stroke:#585D84; stroke-width:120000.000000; stroke-opacity:1; 
stroke-linecap:round; stroke-linejoin:round;">
<g transform="rotate(-90.000000 32004000.000000 55979401.000000)">
<text x="32004000.000000" y="56379401.000000"
transform="scale(-1 1) translate(-64008000.000000 0)"
textLength="1366905.000000" font-size="1066666.000000" lengthAdjust="spacingAndGlyphs"
text-anchor="middle" opacity="0">C2</text>
</g>
<g class="stroked-text"><desc>C2</desc>
<path d="M32289714 55846067
L32327809 55807972
L32365904 55693686
L32365904 55617496
L32327809 55503210
L32251619 55427020
L32175428 55388924
L32023047 55350829
L31908761 55350829
L31756380 55388924
L31680190 55427020
L31604000 55503210
L31565904 55617496
L31565904 55693686
L31604000 55807972
L31642095 55846067
" />
<path d="M31642095 56150829
L31604000 56188924
L31565904 56265115
L31565904 56455591
L31604000 56531781
L31642095 56569877
L31718285 56607972
L31794476 56607972
L31908761 56569877
L32365904 56112734
L32365904 56607972
" />
</g></g>
<g style="fill:#585D84; fill-opacity:0.0; 
stroke:#585D84; stroke-width:150000.000000; stroke-opacity:1; 
stroke-linecap:round; stroke-linejoin:round;">
<text x="54864000.000000" y="48252007.000000"
transform="scale(-1 1) translate(-109728000.000000 0)"
textLength="4653601.000000" font-size="1333354.000000" lengthAdjust="spacingAndGlyphs"
text-anchor="middle" opacity="0">LM386</text>
<g class="stroked-text"><desc>LM386</desc>
<path d="M56554503 48204387
L57030701 48204387
L57030701 47204371
" />
<path d="M56221164 48204387
L56221164 47204371
L55887825 47918668
L55554487 47204371
L55554487 48204387
" />
<path d="M55173528 47204371
L54554471 47204371
L54887809 47585329
L54744950 47585329
L54649710 47632949
L54602091 47680569
L54554471 47775808
L54554471 48013907
L54602091 48109147
L54649710 48156767
L54744950 48204387
L55030669 48204387
L55125908 48156767
L55173528 48109147
" />
<path d="M53983033 47632949
L54078273 47585329
L54125892 47537709
L54173512 47442470
L54173512 47394850
L54125892 47299610
L54078273 47251991
L53983033 47204371
L53792554 47204371
L53697314 47251991
L53649694 47299610
L53602075 47394850
L53602075 47442470
L53649694 47537709
L53697314 47585329
L53792554 47632949
L53983033 47632949
L54078273 47680569
L54125892 47728189
L54173512 47823428
L54173512 48013907
L54125892 48109147
L54078273 48156767
L53983033 48204387
L53792554 48204387
L53697314 48156767
L53649694 48109147
L53602075 48013907
L53602075 47823428
L53649694 47728189
L53697314 47680569
L53792554 47632949
" />
<path d="M52744918 47204371
L52935397 47204371
L53030637 47251991
L53078257 47299610
L53173496 47442470
L53221116 47632949
L53221116 48013907
L53173496 48109147
L53125876 48156767
L53030637 48204387
L52840158 48204387
L52744918 48156767
L52697298 48109147
L52649678 48013907
L52649678 47775808
L52697298 47680569
L52744918 47632949
L52840158 47585329
L53030637 47585329
L53125876 47632949
L53173496 47680569
L53221116 47775808
" />
</g><g transform="rotate(-180.000000 72644000.000000 47752000.000000)">
<text x="72644000.000000" y="48252000.000000"
transform="scale(-1 1) translate(-145288000.000000 0)"
textLength="8852619.000000" font-size="1333333.000000" lengthAdjust="spacingAndGlyphs"
text-anchor="middle" opacity="0">RPi_Pico_TH</text>
</g>
<g class="stroked-text"><desc>RPi_Pico_TH</desc>
<path d="M68929714 47299619
L68596380 47775809
" />
<path d="M68358285 47299619
L68358285 48299619
L68739238 48299619
L68834476 48252000
L68882095 48204380
L68929714 48109142
L68929714 47966285
L68882095 47871047
L68834476 47823428
L68739238 47775809
L68358285 47775809
" />
<path d="M69358285 47299619
L69358285 48299619
L69739238 48299619
L69834476 48252000
L69882095 48204380
L69929714 48109142
L69929714 47966285
L69882095 47871047
L69834476 47823428
L69739238 47775809
L69358285 47775809
" />
<path d="M70358285 47299619
L70358285 47966285
" />
<path d="M70358285 48299619
L70310666 48252000
L70358285 48204380
L70405904 48252000
L70358285 48299619
L70358285 48204380
" />
<path d="M70596380 47204380
L71358285 47204380
" />
<path d="M71596380 47299619
L71596380 48299619
L71977333 48299619
L72072571 48252000
L72120190 48204380
L72167809 48109142
L72167809 47966285
L72120190 47871047
L72072571 47823428
L71977333 47775809
L71596380 47775809
" />
<path d="M72596380 47299619
L72596380 47966285
" />
<path d="M72596380 48299619
L72548761 48252000
L72596380 48204380
L72644000 48252000
L72596380 48299619
L72596380 48204380
" />
<path d="M73501142 47347238
L73405904 47299619
L73215428 47299619
L73120190 47347238
L73072571 47394857
L73024952 47490095
L73024952 47775809
L73072571 47871047
L73120190 47918666
L73215428 47966285
L73405904 47966285
L73501142 47918666
" />
<path d="M74072571 47299619
L73977333 47347238
L73929714 47394857
L73882095 47490095
L73882095 47775809
L73929714 47871047
L73977333 47918666
L74072571 47966285
L74215428 47966285
L74310666 47918666
L74358285 47871047
L74405904 47775809
L74405904 47490095
L74358285 47394857
L74310666 47347238
L74215428 47299619
L74072571 47299619
" />
<path d="M74596380 47204380
L75358285 47204380
" />
<path d="M75453523 48299619
L76024952 48299619
" />
<path d="M75739238 47299619
L75739238 48299619
" />
<path d="M76358285 47299619
L76358285 48299619
" />
<path d="M76358285 47823428
L76929714 47823428
" />
<path d="M76929714 47299619
L76929714 48299619
" />
</g><g transform="rotate(-90.000000 35254000.000000 60944338.000000)">
<text x="35254000.000000" y="61444338.000000"
transform="scale(-1 1) translate(-70508000.000000 0)"
textLength="805000.000000" font-size="1333333.000000" lengthAdjust="spacingAndGlyphs"
text-anchor="middle" opacity="0">C</text>
</g>
<g class="stroked-text"><desc>C</desc>
<path d="M35611142 61253861
L35658761 61206242
L35706380 61063385
L35706380 60968147
L35658761 60825290
L35563523 60730052
L35468285 60682433
L35277809 60634814
L35134952 60634814
L34944476 60682433
L34849238 60730052
L34754000 60825290
L34706380 60968147
L34706380 61063385
L34754000 61206242
L34801619 61253861
" />
</g></g>
<g style="fill:#585D84; fill-opacity:0.0; 
stroke:#585D84; stroke-width:120000.000000; stroke-opacity:1; 
stroke-linecap:round; stroke-linejoin:round;">
<g transform="rotate(-90.000000 32004000.000000 60944338.000000)">
<text x="32004000.000000" y="61344338.000000"
transform="scale(-1 1) translate(-64008000.000000 0)"
textLength="1366905.000000" font-size="1066666.000000" lengthAdjust="spacingAndGlyphs"
text-anchor="middle" opacity="0">C4</text>
</g>
<g class="stroked-text"><desc>C4</desc>
<path d="M32289714 60811004
L32327809 60772909
L32365904 60658623
L32365904 60582433
L32327809 60468147
L32251619 60391957
L32175428 60353861
L32023047 60315766
L31908761 60315766
L31756380 60353861
L31680190 60391957
L31604000 60468147
L31565904 60582433
L31565904 60658623
L31604000 60772909
L31642095 60811004
" />
<path d="M31832571 61496718
L32365904 61496718
" />
<path d="M31527809 61306242
L32099238 61115766
L32099238 61611004
" />
</g></g>
<g style="fill:#585D84; fill-opacity:0.0; 
stroke:#585D84; stroke-width:150000.000000; stroke-opacity:1; 
stroke-linecap:round; stroke-linejoin:round;">
<g transform="rotate(-90.000000 20014000.000000 26566892.000000)">
<text x="20014000.000000" y="27066892.000000"
transform="scale(-1 1) translate(-40028000.000000 0)"
textLength="3653524.000000" font-size="1333333.000000" lengthAdjust="spacingAndGlyphs"
text-anchor="middle" opacity="0">10µF</text>
</g>
<g class="stroked-text"><desc>10µF</desc>
<path d="M20466380 25424034
L20466380 24852606
" />
<path d="M20466380 25138320
L19466380 25138320
L19609238 25043082
L19704476 24947844
L19752095 24852606
" />
<path d="M19466380 26043082
L19466380 26138320
L19514000 26233558
L19561619 26281177
L19656857 26328796
L19847333 26376415
L20085428 26376415
L20275904 26328796
L20371142 26281177
L20418761 26233558
L20466380 26138320
L20466380 26043082
L20418761 25947844
L20371142 25900225
L20275904 25852606
L20085428 25804987
L19847333 25804987
L19656857 25852606
L19561619 25900225
L19514000 25947844
L19466380 26043082
" />
<path d="M19799714 26804987
L20799714 26804987
" />
<path d="M20323523 27281177
L20418761 27328796
L20466380 27424034
" />
<path d="M20323523 26804987
L20418761 26852606
L20466380 26947844
L20466380 27138320
L20418761 27233558
L20323523 27281177
L19799714 27281177
" />
<path d="M19942571 28185939
L19942571 27852606
" />
<path d="M20466380 27852606
L19466380 27852606
L19466380 28328796
" />
</g></g>
<g style="fill:#585D84; fill-opacity:0.0; 
stroke:#585D84; stroke-width:120000.000000; stroke-opacity:1; 
stroke-linecap:round; stroke-linejoin:round;">
<g transform="rotate(-90.000000 16764000.000000 26566892.000000)">
<text x="16764000.000000" y="26966892.000000"
transform="scale(-1 1) translate(-33528000.000000 0)"
textLength="1366905.000000" font-size="1066666.000000" lengthAdjust="spacingAndGlyphs"
text-anchor="middle" opacity="0">C5</text>
</g>
<g class="stroked-text"><desc>C5</desc>
<path d="M17049714 26433558
L17087809 26395463
L17125904 26281177
L17125904 26204987
L17087809 26090701
L17011619 26014511
L16935428 25976415
L16783047 25938320
L16668761 25938320
L16516380 25976415
L16440190 26014511
L16364000 26090701
L16325904 26204987
L16325904 26281177
L16364000 26395463
L16402095 26433558
" />
<path d="M16325904 27157368
L16325904 26776415
L16706857 26738320
L16668761 26776415
L16630666 26852606
L16630666 27043082
L16668761 27119272
L16706857 27157368
L16783047 27195463
L16973523 27195463
L17049714 27157368
L17087809 27119272
L17125904 27043082
L17125904 26852606
L17087809 26776415
L17049714 26738320
" />
</g></g>
<g style="fill:#585D84; fill-opacity:0.0; 
stroke:#585D84; stroke-width:150000.000000; stroke-opacity:1; 
stroke-linecap:round; stroke-linejoin:round;">
<g transform="rotate(-90.000000 18684000.000000 17272000.000000)">
<text x="18684000.000000" y="17772000.000000"
transform="scale(-1 1) translate(-37368000.000000 0)"
textLength="2558286.000000" font-size="1333333.000000" lengthAdjust="spacingAndGlyphs"
text-anchor="middle" opacity="0">10k</text>
</g>
<g class="stroked-text"><desc>10k</desc>
<path d="M19136380 16676761
L19136380 16105333
" />
<path d="M19136380 16391047
L18136380 16391047
L18279238 16295809
L18374476 16200571
L18422095 16105333
" />
<path d="M18136380 17295809
L18136380 17391047
L18184000 17486285
L18231619 17533904
L18326857 17581523
L18517333 17629142
L18755428 17629142
L18945904 17581523
L19041142 17533904
L19088761 17486285
L19136380 17391047
L19136380 17295809
L19088761 17200571
L19041142 17152952
L18945904 17105333
L18755428 17057714
L18517333 17057714
L18326857 17105333
L18231619 17152952
L18184000 17200571
L18136380 17295809
" />
<path d="M19136380 18057714
L18136380 18057714
" />
<path d="M18755428 18152952
L19136380 18438666
" />
<path d="M18469714 18438666
L18850666 18057714
" />
</g></g>
<g style="fill:#585D84; fill-opacity:0.0; 
stroke:#585D84; stroke-width:108000.000000; stroke-opacity:1; 
stroke-linecap:round; stroke-linejoin:round;">
<g transform="rotate(-90.000000 16764000.000000 17272000.000000)">
<text x="16764000.000000" y="17632000.000000"
transform="scale(-1 1) translate(-33528000.000000 0)"
textLength="1210714.000000" font-size="960000.000000" lengthAdjust="spacingAndGlyphs"
text-anchor="middle" opacity="0">R7</text>
</g>
<g class="stroked-text"><desc>R7</desc>
<path d="M17089714 17152000
L16746857 16912000
" />
<path d="M17089714 16740571
L16369714 16740571
L16369714 17014857
L16404000 17083428
L16438285 17117714
L16506857 17152000
L16609714 17152000
L16678285 17117714
L16712571 17083428
L16746857 17014857
L16746857 16740571
" />
<path d="M16369714 17392000
L16369714 17872000
L17089714 17563428
" />
</g></g>
<g style="fill:#585D84; fill-opacity:0.0; 
stroke:#585D84; stroke-width:150000.000000; stroke-opacity:1; 
stroke-linecap:round; stroke-linejoin:round;">
<g transform="rotate(-90.000000 8524000.000000 17272000.000000)">
<text x="8524000.000000" y="17772000.000000"
transform="scale(-1 1) translate(-17048000.000000 0)"
textLength="1621505.000000" font-size="1333333.000000" lengthAdjust="spacingAndGlyphs"
text-anchor="middle" opacity="0">2k</text>
</g>
<g class="stroked-text"><desc>2k</desc>
<path d="M8071619 16581523
L8024000 16629142
L7976380 16724380
L7976380 16962476
L8024000 17057714
L8071619 17105333
L8166857 17152952
L8262095 17152952
L8404952 17105333
L8976380 16533904
L8976380 17152952
" />
<path d="M8976380 17581523
L7976380 17581523
" />
<path d="M8595428 17676761
L8976380 17962476
" />
<path d="M8309714 17962476
L8690666 17581523
" />
</g></g>
<g style="fill:#585D84; fill-opacity:0.0; 
stroke:#585D84; stroke-width:108000.000000; stroke-opacity:1; 
stroke-linecap:round; stroke-linejoin:round;">
<g transform="rotate(-90.000000 6604000.000000 17272000.000000)">
<text x="6604000.000000" y="17632000.000000"
transform="scale(-1 1) translate(-13208000.000000 0)"
textLength="1210714.000000" font-size="960000.000000" lengthAdjust="spacingAndGlyphs"
text-anchor="middle" opacity="0">R6</text>
</g>
<g class="stroked-text"><desc>R6</desc>
<path d="M6929714 17152000
L6586857 16912000
" />
<path d="M6929714 16740571
L6209714 16740571
L6209714 17014857
L6244000 17083428
L6278285 17117714
L6346857 17152000
L6449714 17152000
L6518285 17117714
L6552571 17083428
L6586857 17014857
L6586857 16740571
" />
<path d="M6209714 17769142
L6209714 17632000
L6244000 17563428
L6278285 17529142
L6381142 17460571
L6518285 17426285
L6792571 17426285
L6861142 17460571
L6895428 17494857
L6929714 17563428
L6929714 17700571
L6895428 17769142
L6861142 17803428
L6792571 17837714
L6621142 17837714
L6552571 17803428
L6518285 17769142
L6484000 17700571
L6484000 17563428
L6518285 17494857
L6552571 17460571
L6621142 17426285
" />
</g></g>
<g style="fill:#585D84; fill-opacity:0.0; 
stroke:#585D84; stroke-width:100000.000000; stroke-opacity:1; 
stroke-linecap:round; stroke-linejoin:round;">
<path d="M26924000 52832000
L24914000 52832000
" />
<path d="M21314000 53632000
L21314000 52032000
" />
<path d="M24914000 53632000
L21314000 53632000
" />
<path d="M21314000 52032000
L24914000 52032000
" />
<path d="M24914000 52032000
L24914000 53632000
" />
<path d="M19304000 52832000
L21314000 52832000
" />
<path d="M37951500 62657108
L37951500 62257108
" />
<path d="M38151500 62457108
L37751500 62457108
" />
<circle cx="37084000.000000" cy="60954554.000000" r="2000000.000000" /> 
<path d="M38151500 57494554
L37751500 57494554
" />
<path d="M37951500 57694554
L37951500 57294554
" />
<circle cx="37084000.000000" cy="55992000.000000" r="2000000.000000" /> 
<path d="M21844000 21082000
L21844000 19072000
" />
<path d="M21044000 15472000
L22644000 15472000
" />
<path d="M21844000 13462000
L21844000 15472000
" />
<path d="M22644000 19072000
L21044000 19072000
" />
<path d="M21044000 19072000
L21044000 15472000
" />
<path d="M22644000 15472000
L22644000 19072000
" />
<path d="M71644000 22780000
L84644000 22780000
" />
<path d="M84644000 22780000
L84644000 12780000
" />
<path d="M71644000 12780000
L71644000 16780000
" />
<path d="M72644000 17780000
L71644000 18780000
" />
<path d="M71644000 18780000
L71644000 22780000
" />
<path d="M84644000 12780000
L71644000 12780000
" />
<path d="M71644000 16780000
L72644000 17780000
" />
<path d="M10816500 24729446
L10816500 25129446
" />
<path d="M10616500 24929446
L11016500 24929446
" />
<circle cx="11684000.000000" cy="26432000.000000" r="2000000.000000" /> 
<path d="M10884000 15472000
L12484000 15472000
" />
<path d="M11684000 13462000
L11684000 15472000
" />
<path d="M12484000 15472000
L12484000 19072000
" />
<path d="M11684000 21082000
L11684000 19072000
" />
<path d="M12484000 19072000
L10884000 19072000
" />
<path d="M10884000 19072000
L10884000 15472000
" />
<path d="M24914000 59652000
L24914000 61252000
" />
<path d="M24914000 61252000
L21314000 61252000
" />
<path d="M21314000 59652000
L24914000 59652000
" />
<path d="M19304000 60452000
L21314000 60452000
" />
<path d="M26924000 60452000
L24914000 60452000
" />
<path d="M21314000 61252000
L21314000 59652000
" />
<path d="M30936500 54476847
L31336500 54476847
" />
<path d="M31136500 54276847
L31136500 54676847
" />
<circle cx="32004000.000000" cy="55979401.000000" r="2000000.000000" /> 
</g>
<g style="fill:#585D84; fill-opacity:0.0; 
stroke:#585D84; stroke-width:50000.000000; stroke-opacity:1; 
stroke-linecap:round; stroke-linejoin:round;">
<path style="fill:#585D84; fill-opacity:0.0; 
stroke:#585D84; stroke-width:50000.000000; stroke-opacity:1; 
stroke-linecap:round; stroke-linejoin:round;fill:none"
d="M 83144000.000000,75792000.000000
78344000.000000,75792000.000000
78344000.000000,77092000.000000
66944000.000000,77092000.000000
66944000.000000,75792000.000000
62144000.000000,75792000.000000
62144000.000000,24792000.000000
83144000.000000,24792000.000000
Z" /> 
</g>
<g style="fill:#585D84; fill-opacity:0.0; 
stroke:#585D84; stroke-width:100000.000000; stroke-opacity:1; 
stroke-linecap:round; stroke-linejoin:round;">
<path d="M31136500 59241784
L31136500 59641784
" />
<path d="M30936500 59441784
L31336500 59441784
" />
<circle cx="32004000.000000" cy="60944338.000000" r="2000000.000000" /> 
<path d="M15896500 24864338
L15896500 25264338
" />
<path d="M15696500 25064338
L16096500 25064338
" />
<circle cx="16764000.000000" cy="26566892.000000" r="2000000.000000" /> 
<path d="M16764000 21082000
L16764000 19072000
" />
<path d="M17564000 15472000
L17564000 19072000
" />
<path d="M16764000 13462000
L16764000 15472000
" />
<path d="M17564000 19072000
L15964000 19072000
" />
<path d="M15964000 19072000
L15964000 15472000
" />
<path d="M15964000 15472000
L17564000 15472000
" />
<path d="M6604000 13462000
L6604000 15472000
" />
<path d="M5804000 15472000
L7404000 15472000
" />
<path d="M7404000 15472000
L7404000 19072000
" />
<path d="M6604000 21082000
L6604000 19072000
" />
<path d="M7404000 19072000
L5804000 19072000
" />
<path d="M5804000 19072000
L5804000 15472000
" />
<g >
</g>
<g >
</g>
<g >
</g>
<g >
</g>
<g >
</g>
<g >
</g>
<g >
</g>
<g >
</g>
<g >
</g>
<g >
</g>
<g >
</g>
<g >
</g>
<g >
</g>
<g >
</g>
<g >
</g>
<g >
</g>
<g >
</g>
<g >
</g>
<g >
</g>
<g >
</g>
<g >
</g>
<g >
</g>
<g >
</g>
<g >
</g>
<g >
</g>
<g >
</g>
<g >
</g>
<g >
</g>
<g >
</g>
</g>
<g style="fill:#000000; fill-opacity:0.0; 
stroke:#000000; stroke-width:100000.000000; stroke-opacity:1; 
stroke-linecap:round; stroke-linejoin:round;">
</g>
<g style="fill:#D0D2CD; fill-opacity:0.0; 
stroke:#D0D2CD; stroke-width:100000.000000; stroke-opacity:1; 
stroke-linecap:round; stroke-linejoin:round;">
<path d="M84836000 83312000
L3556000 83312000
" />
<path d="M3556000 83312000
L3556000 2540000
" />
<path d="M3556000 2540000
L84836000 2540000
" />
<path d="M84836000 2540000
L84836000 83312000
" />
<circle cx="80772000.000000" cy="6604000.000000" r="2540000.000000" /> 
<circle cx="7620000.000000" cy="79248000.000000" r="2540000.000000" /> 
<circle cx="7620000.000000" cy="6604000.000000" r="2540000.000000" /> 
<circle cx="80772000.000000" cy="79248000.000000" r="2540000.000000" /> 
<g >
</g>
<g >
</g>
<g >
</g>
<g >
</g>
<g >
</g>
<g >
</g>
<g >
</g>
<g >
</g>
<g >
</g>
<g >
</g>
<g >
</g>
<g >
</g>
<g >
</g>
<g >
</g>
<g >
</g>
<g >
</g>
<g >
</g>
<g >
</g>
<g >
</g>
<g >
</g>
<g >
</g>
<g >
</g>
<g >
</g>
<g >
</g>
<g >
</g>
<g >
</g>
<g >
</g>
<g >
</g>
<g >
</g>
</g> 
</svg>
