<?xml version="1.0" standalone="no"?>
 <!DOCTYPE svg PUBLIC "-//W3C//DTD SVG 1.1//EN" 
 "http://www.w3.org/Graphics/SVG/1.1/DTD/svg11.dtd"> 
<svg
  xmlns:svg="http://www.w3.org/2000/svg"
  xmlns="http://www.w3.org/2000/svg"
  xmlns:xlink="http://www.w3.org/1999/xlink"
  version="1.1"
  width="8.788400cm" height="8.585200cm" viewBox="0 0 87884000 85852000">
<title>SVG Picture created as clockschematic-F_Courtyard.svg date 2023/07/26 13:47:30 </title>
  <desc>Picture generated by PCBNEW </desc>
<g style="fill:#000000; fill-opacity:1.000000;stroke:#000000; stroke-opacity:1.000000;
stroke-linecap:round; stroke-linejoin:round;"
 transform="translate(0 0) scale(1 1)">
</g>
<g style="fill:#000000; fill-opacity:0.0; 
stroke:#000000; stroke-width:0.000000; stroke-opacity:1; 
stroke-linecap:round; stroke-linejoin:round;">
</g>
<g style="fill:#FF26E2; fill-opacity:0.0; 
stroke:#FF26E2; stroke-width:0.000000; stroke-opacity:1; 
stroke-linecap:round; stroke-linejoin:round;">
</g>
<g style="fill:#FF26E2; fill-opacity:0.0; 
stroke:#FF26E2; stroke-width:50000.000000; stroke-opacity:1; 
stroke-linecap:round; stroke-linejoin:round;">
<path d="M46914000 71822000
L46914000 71572000
" />
<path d="M37414000 71822000
L37664000 71822000
" />
<path d="M46914000 64572000
L46914000 71572000
" />
<path d="M37414000 64322000
L37664000 64322000
" />
<path d="M37414000 71572000
L37414000 64572000
" />
<path d="M46664000 71822000
L37664000 71822000
" />
<path d="M37414000 64572000
L37414000 64322000
" />
<path d="M46664000 64322000
L46914000 64322000
" />
<path d="M37664000 64322000
L46664000 64322000
" />
<path d="M37414000 71572000
L37414000 71822000
" />
<path d="M46664000 71822000
L46914000 71822000
" />
<path d="M46914000 64322000
L46914000 64572000
" />
<path d="M52904000 64322000
L61904000 64322000
" />
<path d="M62154000 64322000
L62154000 64572000
" />
<path d="M52654000 71572000
L52654000 64572000
" />
<path d="M52654000 71822000
L52904000 71822000
" />
<path d="M52654000 64322000
L52904000 64322000
" />
<path d="M52654000 71572000
L52654000 71822000
" />
<path d="M62154000 71822000
L62154000 71572000
" />
<path d="M61904000 64322000
L62154000 64322000
" />
<path d="M61904000 71822000
L62154000 71822000
" />
<path d="M61904000 71822000
L52904000 71822000
" />
<path d="M62154000 64572000
L62154000 71572000
" />
<path d="M52654000 64572000
L52654000 64322000
" />
<path d="M70070000 56830000
L72170000 56830000
" />
<path d="M72170000 56830000
L72170000 47310000
" />
<path d="M72170000 47310000
L70070000 47310000
" />
<path d="M70070000 47310000
L70070000 56830000
" />
<path d="M22174000 71822000
L22424000 71822000
" />
<path d="M31424000 64322000
L31674000 64322000
" />
<path d="M31674000 64322000
L31674000 64572000
" />
<path d="M31674000 64572000
L31674000 71572000
" />
<path d="M31674000 71822000
L31674000 71572000
" />
<path d="M31424000 71822000
L22424000 71822000
" />
<path d="M22174000 64572000
L22174000 64322000
" />
<path d="M22174000 71572000
L22174000 71822000
" />
<path d="M22424000 64322000
L31424000 64322000
" />
<path d="M22174000 64322000
L22424000 64322000
" />
<path d="M31424000 71822000
L31674000 71822000
" />
<path d="M22174000 71572000
L22174000 64572000
" />
<path d="M75218000 56830000
L75218000 47310000
" />
<path d="M73118000 47310000
L73118000 56830000
" />
<path d="M75218000 47310000
L73118000 47310000
" />
<path d="M73118000 56830000
L75218000 56830000
" />
<path d="M6934000 64572000
L6934000 64322000
" />
<path d="M6934000 71822000
L7184000 71822000
" />
<path d="M16434000 64572000
L16434000 71572000
" />
<path d="M16434000 64322000
L16434000 64572000
" />
<path d="M6934000 64322000
L7184000 64322000
" />
<path d="M16434000 71822000
L16434000 71572000
" />
<path d="M6934000 71572000
L6934000 71822000
" />
<path d="M16184000 71822000
L16434000 71822000
" />
<path d="M7184000 64322000
L16184000 64322000
" />
<path d="M16184000 64322000
L16434000 64322000
" />
<path d="M16184000 71822000
L7184000 71822000
" />
<path d="M6934000 71572000
L6934000 64572000
" />
<g >
</g>
<g >
</g>
<g >
</g>
<g >
</g>
<g >
</g>
<g >
</g>
<g >
</g>
<g >
</g>
<g >
</g>
<g >
</g>
<g >
</g>
<g >
</g>
<g >
</g>
<g >
</g>
<g >
</g>
<g >
</g>
<g >
</g>
<g >
</g>
<g >
</g>
<g >
</g>
<g >
</g>
<g >
</g>
<g >
</g>
<g >
</g>
<g >
</g>
<g >
</g>
<g >
</g>
<g >
</g>
<g >
</g>
</g>
<g style="fill:#000000; fill-opacity:0.0; 
stroke:#000000; stroke-width:50000.000000; stroke-opacity:1; 
stroke-linecap:round; stroke-linejoin:round;">
</g>
<g style="fill:#D0D2CD; fill-opacity:0.0; 
stroke:#D0D2CD; stroke-width:50000.000000; stroke-opacity:1; 
stroke-linecap:round; stroke-linejoin:round;">
</g>
<g style="fill:#D0D2CD; fill-opacity:0.0; 
stroke:#D0D2CD; stroke-width:100000.000000; stroke-opacity:1; 
stroke-linecap:round; stroke-linejoin:round;">
<path d="M84836000 83312000
L3556000 83312000
" />
<path d="M3556000 83312000
L3556000 2540000
" />
<path d="M3556000 2540000
L84836000 2540000
" />
<path d="M84836000 2540000
L84836000 83312000
" />
<circle cx="80772000.000000" cy="6604000.000000" r="2540000.000000" /> 
<circle cx="7620000.000000" cy="79248000.000000" r="2540000.000000" /> 
<circle cx="7620000.000000" cy="6604000.000000" r="2540000.000000" /> 
<circle cx="80772000.000000" cy="79248000.000000" r="2540000.000000" /> 
<g >
</g>
<g >
</g>
<g >
</g>
<g >
</g>
<g >
</g>
<g >
</g>
<g >
</g>
<g >
</g>
<g >
</g>
<g >
</g>
<g >
</g>
<g >
</g>
<g >
</g>
<g >
</g>
<g >
</g>
<g >
</g>
<g >
</g>
<g >
</g>
<g >
</g>
<g >
</g>
<g >
</g>
<g >
</g>
<g >
</g>
<g >
</g>
<g >
</g>
<g >
</g>
<g >
</g>
<g >
</g>
<g >
</g>
</g> 
</svg>
