<?xml version="1.0" standalone="no"?>
 <!DOCTYPE svg PUBLIC "-//W3C//DTD SVG 1.1//EN" 
 "http://www.w3.org/Graphics/SVG/1.1/DTD/svg11.dtd"> 
<svg
  xmlns:svg="http://www.w3.org/2000/svg"
  xmlns="http://www.w3.org/2000/svg"
  xmlns:xlink="http://www.w3.org/1999/xlink"
  version="1.1"
  width="8.788400cm" height="8.585200cm" viewBox="0 0 87884000 85852000">
<title>SVG Picture created as clockschematic-B_Courtyard.svg date 2023/07/26 13:47:30 </title>
  <desc>Picture generated by PCBNEW </desc>
<g style="fill:#000000; fill-opacity:1.000000;stroke:#000000; stroke-opacity:1.000000;
stroke-linecap:round; stroke-linejoin:round;"
 transform="translate(0 0) scale(1 1)">
</g>
<g style="fill:#000000; fill-opacity:0.0; 
stroke:#000000; stroke-width:0.000000; stroke-opacity:1; 
stroke-linecap:round; stroke-linejoin:round;">
</g>
<g style="fill:#26E9FF; fill-opacity:0.0; 
stroke:#26E9FF; stroke-width:0.000000; stroke-opacity:1; 
stroke-linecap:round; stroke-linejoin:round;">
</g>
<g style="fill:#26E9FF; fill-opacity:0.0; 
stroke:#26E9FF; stroke-width:50000.000000; stroke-opacity:1; 
stroke-linecap:round; stroke-linejoin:round;">
<path d="M27874000 53882000
L18354000 53882000
" />
<path d="M18354000 53882000
L18354000 51782000
" />
<path d="M27874000 51782000
L27874000 53882000
" />
<path d="M18354000 51782000
L27874000 51782000
" />
<circle cx="37084000.000000" cy="60954554.000000" r="2250000.000000" /> 
<circle cx="37084000.000000" cy="55992000.000000" r="2250000.000000" /> 
<path d="M20794000 22032000
L20794000 12512000
" />
<path d="M22894000 22032000
L20794000 22032000
" />
<path d="M22894000 12512000
L22894000 22032000
" />
<path d="M20794000 12512000
L22894000 12512000
" />
<path d="M85144000 11780000
L85144000 23780000
" />
<path d="M71144000 23780000
L71144000 11780000
" />
<path d="M85144000 23780000
L71144000 23780000
" />
<path d="M71144000 11780000
L85144000 11780000
" />
<circle cx="11684000.000000" cy="26432000.000000" r="2250000.000000" /> 
<path d="M46576000 9264000
L26576000 9264000
" />
<path d="M26576000 9264000
L26576000 24264000
" />
<path d="M26576000 24264000
L46576000 24264000
" />
<path d="M46576000 24264000
L46576000 9264000
" />
<path d="M12734000 12512000
L12734000 22032000
" />
<path d="M12734000 22032000
L10634000 22032000
" />
<path d="M10634000 22032000
L10634000 12512000
" />
<path d="M10634000 12512000
L12734000 12512000
" />
<path d="M27874000 61502000
L18354000 61502000
" />
<path d="M18354000 59402000
L27874000 59402000
" />
<path d="M18354000 61502000
L18354000 59402000
" />
<path d="M27874000 59402000
L27874000 61502000
" />
<circle cx="32004000.000000" cy="55979401.000000" r="2250000.000000" /> 
<path style="fill:#26E9FF; fill-opacity:0.0; 
stroke:#26E9FF; stroke-width:50000.000000; stroke-opacity:1; 
stroke-linecap:round; stroke-linejoin:round;fill:none"
d="M 83244000.000000,75892000.000000
78444000.000000,75892000.000000
78444000.000000,77192000.000000
66844000.000000,77192000.000000
66844000.000000,75892000.000000
62044000.000000,75892000.000000
62044000.000000,24692000.000000
83244000.000000,24692000.000000
Z" /> 
<circle cx="32004000.000000" cy="60944338.000000" r="2250000.000000" /> 
<circle cx="16764000.000000" cy="26566892.000000" r="2250000.000000" /> 
<path d="M15714000 12512000
L17814000 12512000
" />
<path d="M15714000 22032000
L15714000 12512000
" />
<path d="M17814000 22032000
L15714000 22032000
" />
<path d="M17814000 12512000
L17814000 22032000
" />
<path d="M5554000 12512000
L7654000 12512000
" />
<path d="M7654000 12512000
L7654000 22032000
" />
<path d="M5554000 22032000
L5554000 12512000
" />
<path d="M7654000 22032000
L5554000 22032000
" />
<g >
</g>
<g >
</g>
<g >
</g>
<g >
</g>
<g >
</g>
<g >
</g>
<g >
</g>
<g >
</g>
<g >
</g>
<g >
</g>
<g >
</g>
<g >
</g>
<g >
</g>
<g >
</g>
<g >
</g>
<g >
</g>
<g >
</g>
<g >
</g>
<g >
</g>
<g >
</g>
<g >
</g>
<g >
</g>
<g >
</g>
<g >
</g>
<g >
</g>
<g >
</g>
<g >
</g>
<g >
</g>
<g >
</g>
</g>
<g style="fill:#000000; fill-opacity:0.0; 
stroke:#000000; stroke-width:50000.000000; stroke-opacity:1; 
stroke-linecap:round; stroke-linejoin:round;">
</g>
<g style="fill:#D0D2CD; fill-opacity:0.0; 
stroke:#D0D2CD; stroke-width:50000.000000; stroke-opacity:1; 
stroke-linecap:round; stroke-linejoin:round;">
</g>
<g style="fill:#D0D2CD; fill-opacity:0.0; 
stroke:#D0D2CD; stroke-width:100000.000000; stroke-opacity:1; 
stroke-linecap:round; stroke-linejoin:round;">
<path d="M84836000 83312000
L3556000 83312000
" />
<path d="M3556000 83312000
L3556000 2540000
" />
<path d="M3556000 2540000
L84836000 2540000
" />
<path d="M84836000 2540000
L84836000 83312000
" />
<circle cx="80772000.000000" cy="6604000.000000" r="2540000.000000" /> 
<circle cx="7620000.000000" cy="79248000.000000" r="2540000.000000" /> 
<circle cx="7620000.000000" cy="6604000.000000" r="2540000.000000" /> 
<circle cx="80772000.000000" cy="79248000.000000" r="2540000.000000" /> 
<g >
</g>
<g >
</g>
<g >
</g>
<g >
</g>
<g >
</g>
<g >
</g>
<g >
</g>
<g >
</g>
<g >
</g>
<g >
</g>
<g >
</g>
<g >
</g>
<g >
</g>
<g >
</g>
<g >
</g>
<g >
</g>
<g >
</g>
<g >
</g>
<g >
</g>
<g >
</g>
<g >
</g>
<g >
</g>
<g >
</g>
<g >
</g>
<g >
</g>
<g >
</g>
<g >
</g>
<g >
</g>
<g >
</g>
</g> 
</svg>
