<?xml version="1.0" standalone="no"?>
 <!DOCTYPE svg PUBLIC "-//W3C//DTD SVG 1.1//EN" 
 "http://www.w3.org/Graphics/SVG/1.1/DTD/svg11.dtd"> 
<svg
  xmlns:svg="http://www.w3.org/2000/svg"
  xmlns="http://www.w3.org/2000/svg"
  xmlns:xlink="http://www.w3.org/1999/xlink"
  version="1.1"
  width="8.788400cm" height="8.585200cm" viewBox="0 0 87884000 85852000">
<title>SVG Picture created as clockschematic-B_Silkscreen.svg date 2023/07/26 13:47:30 </title>
  <desc>Picture generated by PCBNEW </desc>
<g style="fill:#000000; fill-opacity:1.000000;stroke:#000000; stroke-opacity:1.000000;
stroke-linecap:round; stroke-linejoin:round;"
 transform="translate(0 0) scale(1 1)">
</g>
<g style="fill:#000000; fill-opacity:0.0; 
stroke:#000000; stroke-width:0.000000; stroke-opacity:1; 
stroke-linecap:round; stroke-linejoin:round;">
</g>
<g style="fill:#E8B2A7; fill-opacity:0.0; 
stroke:#E8B2A7; stroke-width:0.000000; stroke-opacity:1; 
stroke-linecap:round; stroke-linejoin:round;">
</g>
<g style="fill:#E8B2A7; fill-opacity:0.0; 
stroke:#E8B2A7; stroke-width:150000.000000; stroke-opacity:1; 
stroke-linecap:round; stroke-linejoin:round;">
<text x="23114000.000000" y="51412000.000000"
transform="scale(-1 1) translate(-46228000.000000 0)"
textLength="1952380.000000" font-size="1333333.000000" lengthAdjust="spacingAndGlyphs"
text-anchor="middle" opacity="0">R3</text>
<g class="stroked-text"><desc>R3</desc>
<path d="M23280666 51364380
L23614000 50888190
" />
<path d="M23852095 51364380
L23852095 50364380
L23471142 50364380
L23375904 50412000
L23328285 50459619
L23280666 50554857
L23280666 50697714
L23328285 50792952
L23375904 50840571
L23471142 50888190
L23852095 50888190
" />
<path d="M22947333 50364380
L22328285 50364380
L22661619 50745333
L22518761 50745333
L22423523 50792952
L22375904 50840571
L22328285 50935809
L22328285 51173904
L22375904 51269142
L22423523 51316761
L22518761 51364380
L22804476 51364380
L22899714 51316761
L22947333 51269142
" />
</g><g transform="rotate(-90.000000 40334000.000000 60954554.000000)">
<text x="40334000.000000" y="61454554.000000"
transform="scale(-1 1) translate(-80668000.000000 0)"
textLength="1757381.000000" font-size="1333333.000000" lengthAdjust="spacingAndGlyphs"
text-anchor="middle" opacity="0">C3</text>
</g>
<g class="stroked-text"><desc>C3</desc>
<path d="M40691142 60787887
L40738761 60740268
L40786380 60597411
L40786380 60502173
L40738761 60359315
L40643523 60264077
L40548285 60216458
L40357809 60168839
L40214952 60168839
L40024476 60216458
L39929238 60264077
L39834000 60359315
L39786380 60502173
L39786380 60597411
L39834000 60740268
L39881619 60787887
" />
<path d="M39786380 61121220
L39786380 61740268
L40167333 61406934
L40167333 61549792
L40214952 61645030
L40262571 61692649
L40357809 61740268
L40595904 61740268
L40691142 61692649
L40738761 61645030
L40786380 61549792
L40786380 61264077
L40738761 61168839
L40691142 61121220
" />
</g><g transform="rotate(-90.000000 40334000.000000 55992000.000000)">
<text x="40334000.000000" y="56492000.000000"
transform="scale(-1 1) translate(-80668000.000000 0)"
textLength="1757381.000000" font-size="1333333.000000" lengthAdjust="spacingAndGlyphs"
text-anchor="middle" opacity="0">C1</text>
</g>
<g class="stroked-text"><desc>C1</desc>
<path d="M40691142 55825333
L40738761 55777714
L40786380 55634857
L40786380 55539619
L40738761 55396761
L40643523 55301523
L40548285 55253904
L40357809 55206285
L40214952 55206285
L40024476 55253904
L39929238 55301523
L39834000 55396761
L39786380 55539619
L39786380 55634857
L39834000 55777714
L39881619 55825333
" />
<path d="M40786380 56777714
L40786380 56206285
" />
<path d="M40786380 56492000
L39786380 56492000
L39929238 56396761
L40024476 56301523
L40072095 56206285
" />
</g><g transform="rotate(-90.000000 23764000.000000 17272000.000000)">
<text x="23764000.000000" y="17772000.000000"
transform="scale(-1 1) translate(-47528000.000000 0)"
textLength="1757381.000000" font-size="1333333.000000" lengthAdjust="spacingAndGlyphs"
text-anchor="middle" opacity="0">R8</text>
</g>
<g class="stroked-text"><desc>R8</desc>
<path d="M24216380 17105333
L23740190 16772000
" />
<path d="M24216380 16533904
L23216380 16533904
L23216380 16914857
L23264000 17010095
L23311619 17057714
L23406857 17105333
L23549714 17105333
L23644952 17057714
L23692571 17010095
L23740190 16914857
L23740190 16533904
" />
<path d="M23644952 17676761
L23597333 17581523
L23549714 17533904
L23454476 17486285
L23406857 17486285
L23311619 17533904
L23264000 17581523
L23216380 17676761
L23216380 17867238
L23264000 17962476
L23311619 18010095
L23406857 18057714
L23454476 18057714
L23549714 18010095
L23597333 17962476
L23644952 17867238
L23644952 17676761
L23692571 17581523
L23740190 17533904
L23835428 17486285
L24025904 17486285
L24121142 17533904
L24168761 17581523
L24216380 17676761
L24216380 17867238
L24168761 17962476
L24121142 18010095
L24025904 18057714
L23835428 18057714
L23740190 18010095
L23692571 17962476
L23644952 17867238
" />
</g><g transform="rotate(-90.000000 70344000.000000 17780000.000000)">
<text x="70344000.000000" y="18280000.000000"
transform="scale(-1 1) translate(-140688000.000000 0)"
textLength="1519286.000000" font-size="1333333.000000" lengthAdjust="spacingAndGlyphs"
text-anchor="middle" opacity="0">J1</text>
</g>
<g class="stroked-text"><desc>J1</desc>
<path d="M69796380 17446666
L70510666 17446666
L70653523 17399047
L70748761 17303809
L70796380 17160952
L70796380 17065714
" />
<path d="M70796380 18446666
L70796380 17875238
" />
<path d="M70796380 18160952
L69796380 18160952
L69939238 18065714
L70034476 17970476
L70082095 17875238
" />
</g><g transform="rotate(-90.000000 8434000.000000 26432000.000000)">
<text x="8434000.000000" y="26932000.000000"
transform="scale(-1 1) translate(-16868000.000000 0)"
textLength="1757381.000000" font-size="1333333.000000" lengthAdjust="spacingAndGlyphs"
text-anchor="middle" opacity="0">C6</text>
</g>
<g class="stroked-text"><desc>C6</desc>
<path d="M8791142 26265333
L8838761 26217714
L8886380 26074857
L8886380 25979619
L8838761 25836761
L8743523 25741523
L8648285 25693904
L8457809 25646285
L8314952 25646285
L8124476 25693904
L8029238 25741523
L7934000 25836761
L7886380 25979619
L7886380 26074857
L7934000 26217714
L7981619 26265333
" />
<path d="M7886380 27122476
L7886380 26932000
L7934000 26836761
L7981619 26789142
L8124476 26693904
L8314952 26646285
L8695904 26646285
L8791142 26693904
L8838761 26741523
L8886380 26836761
L8886380 27027238
L8838761 27122476
L8791142 27170095
L8695904 27217714
L8457809 27217714
L8362571 27170095
L8314952 27122476
L8267333 27027238
L8267333 26836761
L8314952 26741523
L8362571 26693904
L8457809 26646285
" />
</g></g>
<g style="fill:#E8B2A7; fill-opacity:0.0; 
stroke:#E8B2A7; stroke-width:250000.000000; stroke-opacity:1; 
stroke-linecap:round; stroke-linejoin:round;">
<text x="36076000.000000" y="9264000.000000"
transform="scale(-1 1) translate(-72152000.000000 0)"
textLength="3805000.000000" font-size="2666666.000000" lengthAdjust="spacingAndGlyphs"
text-anchor="middle" opacity="0">U1</text>
<g class="stroked-text"><desc>U1</desc>
<path d="M37599809 7168761
L37599809 8787809
L37504571 8978285
L37409333 9073523
L37218857 9168761
L36837904 9168761
L36647428 9073523
L36552190 8978285
L36456952 8787809
L36456952 7168761
" />
<path d="M34456952 9168761
L35599809 9168761
" />
<path d="M35028380 9168761
L35028380 7168761
L35218857 7454476
L35409333 7644952
L35599809 7740190
" />
</g></g>
<g style="fill:#E8B2A7; fill-opacity:0.0; 
stroke:#E8B2A7; stroke-width:150000.000000; stroke-opacity:1; 
stroke-linecap:round; stroke-linejoin:round;">
<g transform="rotate(-90.000000 9764000.000000 17272000.000000)">
<text x="9764000.000000" y="17772000.000000"
transform="scale(-1 1) translate(-19528000.000000 0)"
textLength="1627381.000000" font-size="1333333.000000" lengthAdjust="spacingAndGlyphs"
text-anchor="middle" opacity="0">R5</text>
</g>
<g class="stroked-text"><desc>R5</desc>
<path d="M10216380 17105333
L9740190 16772000
" />
<path d="M10216380 16533904
L9216380 16533904
L9216380 16914857
L9264000 17010095
L9311619 17057714
L9406857 17105333
L9549714 17105333
L9644952 17057714
L9692571 17010095
L9740190 16914857
L9740190 16533904
" />
<path d="M9216380 18010095
L9216380 17533904
L9692571 17486285
L9644952 17533904
L9597333 17629142
L9597333 17867238
L9644952 17962476
L9692571 18010095
L9787809 18057714
L10025904 18057714
L10121142 18010095
L10168761 17962476
L10216380 17867238
L10216380 17629142
L10168761 17533904
L10121142 17486285
" />
</g></g>
<g style="fill:#E8B2A7; fill-opacity:0.0; 
stroke:#E8B2A7; stroke-width:152400.000000; stroke-opacity:1; 
stroke-linecap:round; stroke-linejoin:round;">
<g transform="rotate(-90.000000 17684000.000000 47752000.000000)">
<text x="17684000.000000" y="48260000.000000"
transform="scale(-1 1) translate(-35368000.000000 0)"
textLength="2562714.000000" font-size="1354666.000000" lengthAdjust="spacingAndGlyphs"
text-anchor="middle" opacity="0">LS1</text>
</g>
<g class="stroked-text"><desc>LS1</desc>
<path d="M18143619 47098857
L18143619 46615047
L17127619 46615047
" />
<path d="M18095238 47389142
L18143619 47534285
L18143619 47776190
L18095238 47872952
L18046857 47921333
L17950095 47969714
L17853333 47969714
L17756571 47921333
L17708190 47872952
L17659809 47776190
L17611428 47582666
L17563047 47485904
L17514666 47437523
L17417904 47389142
L17321142 47389142
L17224380 47437523
L17176000 47485904
L17127619 47582666
L17127619 47824571
L17176000 47969714
" />
<path d="M18143619 48937333
L18143619 48356761
" />
<path d="M18143619 48647047
L17127619 48647047
L17272761 48550285
L17369523 48453523
L17417904 48356761
" />
</g><g transform="rotate(-90.000000 17684000.000000 57912000.000000)">
<text x="17684000.000000" y="58420000.000000"
transform="scale(-1 1) translate(-35368000.000000 0)"
textLength="2559594.000000" font-size="1354666.000000" lengthAdjust="spacingAndGlyphs"
text-anchor="middle" opacity="0">LS2</text>
</g>
<g class="stroked-text"><desc>LS2</desc>
<path d="M18143619 57258857
L18143619 56775047
L17127619 56775047
" />
<path d="M18095238 57549142
L18143619 57694285
L18143619 57936190
L18095238 58032952
L18046857 58081333
L17950095 58129714
L17853333 58129714
L17756571 58081333
L17708190 58032952
L17659809 57936190
L17611428 57742666
L17563047 57645904
L17514666 57597523
L17417904 57549142
L17321142 57549142
L17224380 57597523
L17176000 57645904
L17127619 57742666
L17127619 57984571
L17176000 58129714
" />
<path d="M17224380 58516761
L17176000 58565142
L17127619 58661904
L17127619 58903809
L17176000 59000571
L17224380 59048952
L17321142 59097333
L17417904 59097333
L17563047 59048952
L18143619 58468380
L18143619 59097333
" />
</g></g>
<g style="fill:#E8B2A7; fill-opacity:0.0; 
stroke:#E8B2A7; stroke-width:150000.000000; stroke-opacity:1; 
stroke-linecap:round; stroke-linejoin:round;">
<text x="23114000.000000" y="59032000.000000"
transform="scale(-1 1) translate(-46228000.000000 0)"
textLength="1754261.000000" font-size="1333333.000000" lengthAdjust="spacingAndGlyphs"
text-anchor="middle" opacity="0">R4</text>
<g class="stroked-text"><desc>R4</desc>
<path d="M23280666 58984380
L23614000 58508190
" />
<path d="M23852095 58984380
L23852095 57984380
L23471142 57984380
L23375904 58032000
L23328285 58079619
L23280666 58174857
L23280666 58317714
L23328285 58412952
L23375904 58460571
L23471142 58508190
L23852095 58508190
" />
<path d="M22423523 58317714
L22423523 58984380
" />
<path d="M22661619 57936761
L22899714 58651047
L22280666 58651047
" />
</g><text x="35804710.000000" y="47616812.000000"
transform="scale(-1 1) translate(-71609420.000000 0)"
textLength="1807930.000000" font-size="1335286.000000" lengthAdjust="spacingAndGlyphs"
text-anchor="middle" opacity="0">U2</text>
<g class="stroked-text"><desc>U2</desc>
<path d="M36567730 46567658
L36567730 47378368
L36520042 47473746
L36472353 47521434
L36376975 47569123
L36186220 47569123
L36090842 47521434
L36043154 47473746
L35995465 47378368
L35995465 46567658
" />
<path d="M35566265 46663036
L35518577 46615347
L35423199 46567658
L35184755 46567658
L35089377 46615347
L35041689 46663036
L34994000 46758413
L34994000 46853791
L35041689 46996857
L35613954 47569123
L34994000 47569123
" />
</g><g transform="rotate(-90.000000 28754000.000000 55979401.000000)">
<text x="28754000.000000" y="56479401.000000"
transform="scale(-1 1) translate(-57508000.000000 0)"
textLength="1757381.000000" font-size="1333333.000000" lengthAdjust="spacingAndGlyphs"
text-anchor="middle" opacity="0">C2</text>
</g>
<g class="stroked-text"><desc>C2</desc>
<path d="M29111142 55812734
L29158761 55765115
L29206380 55622258
L29206380 55527020
L29158761 55384162
L29063523 55288924
L28968285 55241305
L28777809 55193686
L28634952 55193686
L28444476 55241305
L28349238 55288924
L28254000 55384162
L28206380 55527020
L28206380 55622258
L28254000 55765115
L28301619 55812734
" />
<path d="M28301619 56193686
L28254000 56241305
L28206380 56336543
L28206380 56574639
L28254000 56669877
L28301619 56717496
L28396857 56765115
L28492095 56765115
L28634952 56717496
L29206380 56146067
L29206380 56765115
" />
</g><text x="48504710.000000" y="47616812.000000"
transform="scale(-1 1) translate(-97009420.000000 0)"
textLength="1807930.000000" font-size="1335286.000000" lengthAdjust="spacingAndGlyphs"
text-anchor="middle" opacity="0">U3</text>
<g class="stroked-text"><desc>U3</desc>
<path d="M49267730 46567658
L49267730 47378368
L49220042 47473746
L49172353 47521434
L49076975 47569123
L48886220 47569123
L48790842 47521434
L48743154 47473746
L48695465 47378368
L48695465 46567658
" />
<path d="M48313954 46567658
L47694000 46567658
L48027821 46949169
L47884755 46949169
L47789377 46996857
L47741689 47044546
L47694000 47139924
L47694000 47378368
L47741689 47473746
L47789377 47521434
L47884755 47569123
L48170888 47569123
L48266265 47521434
L48313954 47473746
" />
</g><g transform="rotate(-90.000000 28754000.000000 60944338.000000)">
<text x="28754000.000000" y="61444338.000000"
transform="scale(-1 1) translate(-57508000.000000 0)"
textLength="1757381.000000" font-size="1333333.000000" lengthAdjust="spacingAndGlyphs"
text-anchor="middle" opacity="0">C4</text>
</g>
<g class="stroked-text"><desc>C4</desc>
<path d="M29111142 60777671
L29158761 60730052
L29206380 60587195
L29206380 60491957
L29158761 60349099
L29063523 60253861
L28968285 60206242
L28777809 60158623
L28634952 60158623
L28444476 60206242
L28349238 60253861
L28254000 60349099
L28206380 60491957
L28206380 60587195
L28254000 60730052
L28301619 60777671
" />
<path d="M28539714 61634814
L29206380 61634814
" />
<path d="M28158761 61396718
L28873047 61158623
L28873047 61777671
" />
</g><g transform="rotate(-90.000000 13514000.000000 26566892.000000)">
<text x="13514000.000000" y="27066892.000000"
transform="scale(-1 1) translate(-27028000.000000 0)"
textLength="1757381.000000" font-size="1333333.000000" lengthAdjust="spacingAndGlyphs"
text-anchor="middle" opacity="0">C5</text>
</g>
<g class="stroked-text"><desc>C5</desc>
<path d="M13871142 26400225
L13918761 26352606
L13966380 26209749
L13966380 26114511
L13918761 25971653
L13823523 25876415
L13728285 25828796
L13537809 25781177
L13394952 25781177
L13204476 25828796
L13109238 25876415
L13014000 25971653
L12966380 26114511
L12966380 26209749
L13014000 26352606
L13061619 26400225
" />
<path d="M12966380 27304987
L12966380 26828796
L13442571 26781177
L13394952 26828796
L13347333 26924034
L13347333 27162130
L13394952 27257368
L13442571 27304987
L13537809 27352606
L13775904 27352606
L13871142 27304987
L13918761 27257368
L13966380 27162130
L13966380 26924034
L13918761 26828796
L13871142 26781177
" />
</g><g transform="rotate(-90.000000 14844000.000000 17272000.000000)">
<text x="14844000.000000" y="17772000.000000"
transform="scale(-1 1) translate(-29688000.000000 0)"
textLength="1757381.000000" font-size="1333333.000000" lengthAdjust="spacingAndGlyphs"
text-anchor="middle" opacity="0">R7</text>
</g>
<g class="stroked-text"><desc>R7</desc>
<path d="M15296380 17105333
L14820190 16772000
" />
<path d="M15296380 16533904
L14296380 16533904
L14296380 16914857
L14344000 17010095
L14391619 17057714
L14486857 17105333
L14629714 17105333
L14724952 17057714
L14772571 17010095
L14820190 16914857
L14820190 16533904
" />
<path d="M14296380 17438666
L14296380 18105333
L15296380 17676761
" />
</g><g transform="rotate(-90.000000 4684000.000000 17272000.000000)">
<text x="4684000.000000" y="17772000.000000"
transform="scale(-1 1) translate(-9368000.000000 0)"
textLength="1757381.000000" font-size="1333333.000000" lengthAdjust="spacingAndGlyphs"
text-anchor="middle" opacity="0">R6</text>
</g>
<g class="stroked-text"><desc>R6</desc>
<path d="M5136380 17105333
L4660190 16772000
" />
<path d="M5136380 16533904
L4136380 16533904
L4136380 16914857
L4184000 17010095
L4231619 17057714
L4326857 17105333
L4469714 17105333
L4564952 17057714
L4612571 17010095
L4660190 16914857
L4660190 16533904
" />
<path d="M4136380 17962476
L4136380 17772000
L4184000 17676761
L4231619 17629142
L4374476 17533904
L4564952 17486285
L4945904 17486285
L5041142 17533904
L5088761 17581523
L5136380 17676761
L5136380 17867238
L5088761 17962476
L5041142 18010095
L4945904 18057714
L4707809 18057714
L4612571 18010095
L4564952 17962476
L4517333 17867238
L4517333 17676761
L4564952 17581523
L4612571 17533904
L4707809 17486285
" />
</g></g>
<g style="fill:#E8B2A7; fill-opacity:0.0; 
stroke:#E8B2A7; stroke-width:120000.000000; stroke-opacity:1; 
stroke-linecap:round; stroke-linejoin:round;">
<path d="M21194000 51912000
L25034000 51912000
" />
<path d="M20244000 52832000
L21194000 52832000
" />
<path d="M25034000 53752000
L21194000 53752000
" />
<path d="M21194000 53752000
L21194000 51912000
" />
<path d="M25034000 51912000
L25034000 53752000
" />
<path d="M25984000 52832000
L25034000 52832000
" />
<path d="M37454000 58873554
L36714000 58873554
" />
<path d="M39066000 60314554
L37924000 60314554
" />
<path d="M38764000 59713554
L37924000 59713554
" />
<path d="M39024000 60193554
L37924000 60193554
" />
<path d="M36244000 59313554
L35780000 59313554
" />
<path d="M39126000 60554554
L37924000 60554554
" />
<path d="M38792000 59753554
L37924000 59753554
" />
<path d="M39140000 60634554
L37924000 60634554
" />
<path d="M38914000 59953554
L37924000 59953554
" />
<path d="M39163000 60874554
L35005000 60874554
" />
<path d="M38388000 59313554
L37924000 59313554
" />
<path d="M38991000 60113554
L37924000 60113554
" />
<path d="M37621000 58913554
L36547000 58913554
" />
<path d="M36244000 59953554
L35254000 59953554
" />
<path d="M36244000 60113554
L35177000 60113554
" />
<path d="M38338000 59273554
L37924000 59273554
" />
<path d="M36244000 60674554
L35022000 60674554
" />
<path d="M36244000 60754554
L35013000 60754554
" />
<path d="M39089000 60394554
L37924000 60394554
" />
<path d="M39146000 60674554
L37924000 60674554
" />
<path d="M38284000 59233554
L37924000 59233554
" />
<path d="M36244000 59793554
L35349000 59793554
" />
<path d="M38935000 59993554
L37924000 59993554
" />
<path d="M39134000 60594554
L37924000 60594554
" />
<path d="M36244000 60354554
L35090000 60354554
" />
<path d="M38480000 59393554
L37924000 59393554
" />
<path d="M36244000 60193554
L35144000 60193554
" />
<path d="M36244000 60514554
L35050000 60514554
" />
<path d="M37748000 58953554
L36420000 58953554
" />
<path d="M36244000 60233554
L35130000 60233554
" />
<path d="M36244000 60554554
L35042000 60554554
" />
<path d="M38636000 59553554
L37924000 59553554
" />
<path d="M38435000 59353554
L37924000 59353554
" />
<path d="M38703000 59633554
L37924000 59633554
" />
<path d="M39052000 60274554
L37924000 60274554
" />
<path d="M39078000 60354554
L37924000 60354554
" />
<path d="M39161000 60834554
L35007000 60834554
" />
<path d="M36244000 60394554
L35079000 60394554
" />
<path d="M38522000 59433554
L37924000 59433554
" />
<path d="M36244000 60714554
L35017000 60714554
" />
<path d="M36244000 59513554
L35568000 59513554
" />
<path d="M38954000 60033554
L37924000 60033554
" />
<path d="M37852000 58993554
L36316000 58993554
" />
<path d="M38892000 59913554
L37924000 59913554
" />
<path d="M36244000 60314554
L35102000 60314554
" />
<path d="M36244000 60474554
L35059000 60474554
" />
<path d="M38024000 59073554
L36144000 59073554
" />
<path d="M39100000 60434554
L37924000 60434554
" />
<path d="M39109000 60474554
L37924000 60474554
" />
<path d="M36244000 60594554
L35034000 60594554
" />
<path d="M36244000 59753554
L35376000 59753554
" />
<path d="M38600000 59513554
L37924000 59513554
" />
<path d="M37943000 59033554
L36225000 59033554
" />
<path d="M36244000 59353554
L35733000 59353554
" />
<path d="M36244000 59833554
L35324000 59833554
" />
<path d="M38226000 59193554
L37924000 59193554
" />
<path d="M36244000 60634554
L35028000 60634554
" />
<path d="M36244000 60153554
L35160000 60153554
" />
<path d="M38479000 63024355
L38079000 63024355
" />
<path d="M39118000 60514554
L37924000 60514554
" />
<path d="M36244000 59473554
L35606000 59473554
" />
<path d="M36244000 60033554
L35214000 60033554
" />
<path d="M38164000 59153554
L37924000 59153554
" />
<path d="M39158000 60794554
L35010000 60794554
" />
<path d="M36244000 59233554
L35884000 59233554
" />
<path d="M38844000 59833554
L37924000 59833554
" />
<path d="M36244000 59993554
L35233000 59993554
" />
<path d="M39155000 60754554
L37924000 60754554
" />
<path d="M38869000 59873554
L37924000 59873554
" />
<path d="M36244000 60434554
L35068000 60434554
" />
<path d="M39008000 60153554
L37924000 60153554
" />
<path d="M36244000 59153554
L36004000 59153554
" />
<path d="M38562000 59473554
L37924000 59473554
" />
<path d="M36244000 59713554
L35404000 59713554
" />
<path d="M36244000 59553554
L35532000 59553554
" />
<path d="M38671000 59593554
L37924000 59593554
" />
<path d="M39038000 60233554
L37924000 60233554
" />
<path d="M38734000 59673554
L37924000 59673554
" />
<path d="M38279000 63224355
L38279000 62824355
" />
<path d="M38819000 59793554
L37924000 59793554
" />
<path d="M36244000 60073554
L35195000 60073554
" />
<path d="M36244000 59673554
L35434000 59673554
" />
<path d="M36244000 60274554
L35116000 60274554
" />
<path d="M36244000 59593554
L35497000 59593554
" />
<path d="M36244000 59913554
L35276000 59913554
" />
<path d="M36244000 59433554
L35646000 59433554
" />
<path d="M36244000 59193554
L35942000 59193554
" />
<path d="M36244000 59873554
L35299000 59873554
" />
<path d="M39151000 60714554
L37924000 60714554
" />
<path d="M39164000 60954554
L35004000 60954554
" />
<path d="M38097000 59113554
L36071000 59113554
" />
<path d="M36244000 59273554
L35830000 59273554
" />
<path d="M38973000 60073554
L37924000 60073554
" />
<path d="M39164000 60914554
L35004000 60914554
" />
<path d="M36244000 59393554
L35688000 59393554
" />
<path d="M36244000 59633554
L35465000 59633554
" />
<circle cx="37084000.000000" cy="60954554.000000" r="2120000.000000" /> 
<path d="M38226000 54231000
L37924000 54231000
" />
<path d="M37454000 53911000
L36714000 53911000
" />
<path d="M36244000 54191000
L36004000 54191000
" />
<path d="M38097000 54151000
L36071000 54151000
" />
<path d="M36244000 55071000
L35214000 55071000
" />
<path d="M39118000 55552000
L37924000 55552000
" />
<path d="M36244000 54871000
L35324000 54871000
" />
<path d="M38024000 54111000
L36144000 54111000
" />
<path d="M39024000 55231000
L37924000 55231000
" />
<path d="M39038000 55271000
L37924000 55271000
" />
<path d="M36244000 55231000
L35144000 55231000
" />
<path d="M36244000 54431000
L35688000 54431000
" />
<path d="M36244000 55792000
L35013000 55792000
" />
<path d="M36244000 54671000
L35465000 54671000
" />
<path d="M38671000 54631000
L37924000 54631000
" />
<path d="M37621000 53951000
L36547000 53951000
" />
<path d="M39066000 55352000
L37924000 55352000
" />
<path d="M38935000 55031000
L37924000 55031000
" />
<path d="M36244000 55191000
L35160000 55191000
" />
<path d="M39109000 55512000
L37924000 55512000
" />
<path d="M39161000 55872000
L35007000 55872000
" />
<path d="M38973000 55111000
L37924000 55111000
" />
<path d="M36244000 55752000
L35017000 55752000
" />
<path d="M36244000 54551000
L35568000 54551000
" />
<path d="M38844000 54871000
L37924000 54871000
" />
<path d="M36244000 54351000
L35780000 54351000
" />
<path d="M38435000 54391000
L37924000 54391000
" />
<path d="M37852000 54031000
L36316000 54031000
" />
<path d="M36244000 55031000
L35233000 55031000
" />
<path d="M39140000 55672000
L37924000 55672000
" />
<path d="M36244000 55712000
L35022000 55712000
" />
<path d="M38338000 54311000
L37924000 54311000
" />
<path d="M36244000 55512000
L35059000 55512000
" />
<path d="M38600000 54551000
L37924000 54551000
" />
<path d="M39163000 55912000
L35005000 55912000
" />
<path d="M36244000 55151000
L35177000 55151000
" />
<path d="M36244000 55352000
L35102000 55352000
" />
<path d="M38819000 54831000
L37924000 54831000
" />
<path d="M38522000 54471000
L37924000 54471000
" />
<path d="M36244000 54471000
L35646000 54471000
" />
<path d="M38284000 54271000
L37924000 54271000
" />
<path d="M38954000 55071000
L37924000 55071000
" />
<path d="M38636000 54591000
L37924000 54591000
" />
<path d="M36244000 54751000
L35404000 54751000
" />
<path d="M36244000 54991000
L35254000 54991000
" />
<path d="M36244000 55592000
L35042000 55592000
" />
<path d="M36244000 55472000
L35068000 55472000
" />
<path d="M39151000 55752000
L37924000 55752000
" />
<path d="M39078000 55392000
L37924000 55392000
" />
<path d="M38991000 55151000
L37924000 55151000
" />
<path d="M39126000 55592000
L37924000 55592000
" />
<path d="M36244000 54391000
L35733000 54391000
" />
<path d="M39100000 55472000
L37924000 55472000
" />
<path d="M39008000 55191000
L37924000 55191000
" />
<path d="M36244000 54951000
L35276000 54951000
" />
<path d="M37748000 53991000
L36420000 53991000
" />
<path d="M39155000 55792000
L37924000 55792000
" />
<path d="M36244000 54631000
L35497000 54631000
" />
<path d="M36244000 55672000
L35028000 55672000
" />
<path d="M36244000 55392000
L35090000 55392000
" />
<path d="M38279000 58261801
L38279000 57861801
" />
<path d="M36244000 55312000
L35116000 55312000
" />
<path d="M38734000 54711000
L37924000 54711000
" />
<path d="M36244000 54231000
L35942000 54231000
" />
<path d="M36244000 54831000
L35349000 54831000
" />
<path d="M36244000 55632000
L35034000 55632000
" />
<path d="M38479000 58061801
L38079000 58061801
" />
<path d="M39164000 55992000
L35004000 55992000
" />
<path d="M36244000 54311000
L35830000 54311000
" />
<path d="M38164000 54191000
L37924000 54191000
" />
<path d="M36244000 55271000
L35130000 55271000
" />
<path d="M36244000 55111000
L35195000 55111000
" />
<path d="M38892000 54951000
L37924000 54951000
" />
<path d="M36244000 55432000
L35079000 55432000
" />
<path d="M36244000 54791000
L35376000 54791000
" />
<path d="M36244000 54271000
L35884000 54271000
" />
<path d="M39158000 55832000
L35010000 55832000
" />
<path d="M39134000 55632000
L37924000 55632000
" />
<path d="M37943000 54071000
L36225000 54071000
" />
<path d="M38764000 54751000
L37924000 54751000
" />
<path d="M39089000 55432000
L37924000 55432000
" />
<path d="M38388000 54351000
L37924000 54351000
" />
<path d="M38562000 54511000
L37924000 54511000
" />
<path d="M36244000 55552000
L35050000 55552000
" />
<path d="M38792000 54791000
L37924000 54791000
" />
<path d="M36244000 54711000
L35434000 54711000
" />
<path d="M36244000 54591000
L35532000 54591000
" />
<path d="M39052000 55312000
L37924000 55312000
" />
<path d="M36244000 54911000
L35299000 54911000
" />
<path d="M39146000 55712000
L37924000 55712000
" />
<path d="M38703000 54671000
L37924000 54671000
" />
<path d="M36244000 54511000
L35606000 54511000
" />
<path d="M38914000 54991000
L37924000 54991000
" />
<path d="M39164000 55952000
L35004000 55952000
" />
<path d="M38869000 54911000
L37924000 54911000
" />
<path d="M38480000 54431000
L37924000 54431000
" />
<circle cx="37084000.000000" cy="55992000.000000" r="2120000.000000" /> 
<path d="M21844000 14402000
L21844000 15352000
" />
<path d="M22764000 19192000
L20924000 19192000
" />
<path d="M20924000 19192000
L20924000 15352000
" />
<path d="M20924000 15352000
L22764000 15352000
" />
<path d="M22764000 15352000
L22764000 19192000
" />
<path d="M21844000 20142000
L21844000 19192000
" />
<path d="M71534000 20080000
L71534000 22890000
" />
<path d="M71534000 22890000
L77594000 22890000
" />
<path d="M77594000 12670000
L71534000 12670000
" />
<path d="M84754000 12670000
L81694000 12670000
" />
<path d="M71344000 16780000
L71344000 18780000
" />
<path d="M84754000 22890000
L84754000 12670000
" />
<path d="M81694000 22890000
L84754000 22890000
" />
<path d="M71534000 12670000
L71534000 15480000
" />
<path d="M9795000 27313000
L10844000 27313000
" />
<path d="M12524000 27072000
L13666000 27072000
" />
<path d="M12524000 26992000
L13689000 26992000
" />
<path d="M12524000 27473000
L13492000 27473000
" />
<path d="M9610000 26592000
L13758000 26592000
" />
<path d="M11020000 28433000
L12348000 28433000
" />
<path d="M9642000 26832000
L10844000 26832000
" />
<path d="M9679000 26992000
L10844000 26992000
" />
<path d="M12524000 26832000
L13726000 26832000
" />
<path d="M10097000 27793000
L10844000 27793000
" />
<path d="M11314000 28513000
L12054000 28513000
" />
<path d="M10333000 28033000
L10844000 28033000
" />
<path d="M10132000 27833000
L10844000 27833000
" />
<path d="M10288000 27993000
L10844000 27993000
" />
<path d="M12524000 27313000
L13573000 27313000
" />
<path d="M9949000 27593000
L10844000 27593000
" />
<path d="M9814000 27353000
L10844000 27353000
" />
<path d="M10484000 28153000
L10844000 28153000
" />
<path d="M12524000 26872000
L13718000 26872000
" />
<path d="M10034000 27713000
L10844000 27713000
" />
<path d="M10430000 28113000
L10844000 28113000
" />
<path d="M10671000 28273000
L12697000 28273000
" />
<path d="M9924000 27553000
L10844000 27553000
" />
<path d="M12524000 27593000
L13419000 27593000
" />
<path d="M10916000 28393000
L12452000 28393000
" />
<path d="M9617000 26672000
L10844000 26672000
" />
<path d="M10542000 28193000
L10844000 28193000
" />
<path d="M10065000 27753000
L10844000 27753000
" />
<path d="M12524000 28073000
L12988000 28073000
" />
<path d="M9622000 26712000
L10844000 26712000
" />
<path d="M9668000 26952000
L10844000 26952000
" />
<path d="M12524000 26952000
L13700000 26952000
" />
<path d="M12524000 27873000
L13200000 27873000
" />
<path d="M12524000 28233000
L12764000 28233000
" />
<path d="M9716000 27112000
L10844000 27112000
" />
<path d="M12524000 27953000
L13122000 27953000
" />
<path d="M10246000 27953000
L10844000 27953000
" />
<path d="M12524000 27353000
L13554000 27353000
" />
<path d="M9613000 26632000
L10844000 26632000
" />
<path d="M12524000 27833000
L13236000 27833000
" />
<path d="M12524000 27273000
L13591000 27273000
" />
<path d="M12524000 27112000
L13652000 27112000
" />
<path d="M12524000 26632000
L13755000 26632000
" />
<path d="M12524000 27993000
L13080000 27993000
" />
<path d="M9628000 26752000
L10844000 26752000
" />
<path d="M9899000 27513000
L10844000 27513000
" />
<path d="M12524000 27153000
L13638000 27153000
" />
<path d="M9730000 27153000
L10844000 27153000
" />
<path d="M9634000 26792000
L10844000 26792000
" />
<path d="M9607000 26552000
L13761000 26552000
" />
<path d="M12524000 27633000
L13392000 27633000
" />
<path d="M9976000 27633000
L10844000 27633000
" />
<path d="M10168000 27873000
L10844000 27873000
" />
<path d="M12524000 27673000
L13364000 27673000
" />
<path d="M9604000 26432000
L13764000 26432000
" />
<path d="M12524000 26792000
L13734000 26792000
" />
<path d="M12524000 27753000
L13303000 27753000
" />
<path d="M12524000 28193000
L12826000 28193000
" />
<path d="M9876000 27473000
L10844000 27473000
" />
<path d="M10489000 24162199
L10489000 24562199
" />
<path d="M12524000 26672000
L13751000 26672000
" />
<path d="M10206000 27913000
L10844000 27913000
" />
<path d="M9650000 26872000
L10844000 26872000
" />
<path d="M12524000 27513000
L13469000 27513000
" />
<path d="M10604000 28233000
L10844000 28233000
" />
<path d="M12524000 27553000
L13444000 27553000
" />
<path d="M10289000 24362199
L10689000 24362199
" />
<path d="M9605000 26512000
L13763000 26512000
" />
<path d="M10825000 28353000
L12543000 28353000
" />
<path d="M12524000 27713000
L13334000 27713000
" />
<path d="M12524000 27433000
L13514000 27433000
" />
<path d="M12524000 28033000
L13035000 28033000
" />
<path d="M9833000 27393000
L10844000 27393000
" />
<path d="M12524000 27393000
L13535000 27393000
" />
<path d="M12524000 28113000
L12938000 28113000
" />
<path d="M12524000 26912000
L13709000 26912000
" />
<path d="M9777000 27273000
L10844000 27273000
" />
<path d="M9702000 27072000
L10844000 27072000
" />
<path d="M9690000 27032000
L10844000 27032000
" />
<path d="M10380000 28073000
L10844000 28073000
" />
<path d="M11147000 28473000
L12221000 28473000
" />
<path d="M12524000 26712000
L13746000 26712000
" />
<path d="M10744000 28313000
L12624000 28313000
" />
<path d="M12524000 27233000
L13608000 27233000
" />
<path d="M12524000 27913000
L13162000 27913000
" />
<path d="M9604000 26472000
L13764000 26472000
" />
<path d="M12524000 27193000
L13624000 27193000
" />
<path d="M9760000 27233000
L10844000 27233000
" />
<path d="M12524000 26752000
L13740000 26752000
" />
<path d="M12524000 27032000
L13678000 27032000
" />
<path d="M10004000 27673000
L10844000 27673000
" />
<path d="M9744000 27193000
L10844000 27193000
" />
<path d="M12524000 27793000
L13271000 27793000
" />
<path d="M9854000 27433000
L10844000 27433000
" />
<path d="M12524000 28153000
L12884000 28153000
" />
<path d="M9659000 26912000
L10844000 26912000
" />
<circle cx="11684000.000000" cy="26432000.000000" r="2120000.000000" /> 
</g>
<g style="fill:#E8B2A7; fill-opacity:0.0; 
stroke:#E8B2A7; stroke-width:150000.000000; stroke-opacity:1; 
stroke-linecap:round; stroke-linejoin:round;">
<path d="M46076000 9764000
L27076000 9764000
" />
<path d="M27076000 9764000
L27076000 23764000
" />
<path d="M27076000 23764000
L46076000 23764000
" />
<path d="M46076000 23764000
L46076000 9764000
" />
</g>
<g style="fill:#E8B2A7; fill-opacity:0.0; 
stroke:#E8B2A7; stroke-width:120000.000000; stroke-opacity:1; 
stroke-linecap:round; stroke-linejoin:round;">
<path d="M10764000 15352000
L12604000 15352000
" />
<path d="M12604000 19192000
L10764000 19192000
" />
<path d="M12604000 15352000
L12604000 19192000
" />
<path d="M10764000 19192000
L10764000 15352000
" />
<path d="M11684000 14402000
L11684000 15352000
" />
<path d="M11684000 20142000
L11684000 19192000
" />
</g>
<g style="fill:#E8B2A7; fill-opacity:0.0; 
stroke:#E8B2A7; stroke-width:254000.000000; stroke-opacity:1; 
stroke-linecap:round; stroke-linejoin:round;">
<circle cx="11684000.000000" cy="47752000.000000" r="5000000.000000" /> 
<circle cx="11684000.000000" cy="57912000.000000" r="5000000.000000" /> 
</g>
<g style="fill:#E8B2A7; fill-opacity:0.0; 
stroke:#E8B2A7; stroke-width:120000.000000; stroke-opacity:1; 
stroke-linecap:round; stroke-linejoin:round;">
<path d="M21194000 61372000
L21194000 59532000
" />
<path d="M20244000 60452000
L21194000 60452000
" />
<path d="M25984000 60452000
L25034000 60452000
" />
<path d="M25034000 61372000
L21194000 61372000
" />
<path d="M25034000 59532000
L25034000 61372000
" />
<path d="M21194000 59532000
L25034000 59532000
" />
</g>
<g style="fill:#E8B2A7; fill-opacity:0.0; 
stroke:#E8B2A7; stroke-width:203200.000000; stroke-opacity:1; 
stroke-linecap:round; stroke-linejoin:round;">
<path d="M47244000 50292000
L47244000 45212000
" />
<path d="M37084000 50292000
L37084000 46228000
" />
<path d="M37084000 45212000
L47244000 45212000
" />
<path d="M37084000 50292000
L47244000 50292000
" />
<path d="M37084000 46228000
L37084000 46736000
" />
<path d="M37084000 45212000
L37084000 46228000
" />
</g>
<g style="fill:#E8B2A7; fill-opacity:0.0; 
stroke:#E8B2A7; stroke-width:254000.000000; stroke-opacity:1; 
stroke-linecap:round; stroke-linejoin:round;">
<circle cx="38354000.000000" cy="46482000.000000" r="718400.000000" /> 
</g>
<g style="fill:#E8B2A7; fill-opacity:0.0; 
stroke:#E8B2A7; stroke-width:120000.000000; stroke-opacity:1; 
stroke-linecap:round; stroke-linejoin:round;">
<path d="M30219000 57060401
L31164000 57060401
" />
<path d="M32844000 57100401
L33764000 57100401
" />
<path d="M30452000 57380401
L31164000 57380401
" />
<path d="M30653000 57580401
L31164000 57580401
" />
<path d="M32844000 56900401
L33874000 56900401
" />
<path d="M32844000 56700401
L33958000 56700401
" />
<path d="M32844000 57060401
L33789000 57060401
" />
<path d="M29925000 56059401
L34083000 56059401
" />
<path d="M32844000 56619401
L33986000 56619401
" />
<path d="M32844000 56499401
L34020000 56499401
" />
<path d="M29933000 56179401
L31164000 56179401
" />
<path d="M32844000 56419401
L34038000 56419401
" />
<path d="M30324000 57220401
L31164000 57220401
" />
<path d="M30115000 56860401
L31164000 56860401
" />
<path d="M32844000 56940401
L33855000 56940401
" />
<path d="M30354000 57260401
L31164000 57260401
" />
<path d="M32844000 56780401
L33928000 56780401
" />
<path d="M31236000 57940401
L32772000 57940401
" />
<path d="M29924000 56019401
L34084000 56019401
" />
<path d="M30804000 57700401
L31164000 57700401
" />
<path d="M29927000 56099401
L34081000 56099401
" />
<path d="M32844000 57580401
L33355000 57580401
" />
<path d="M30809000 53709600
L30809000 54109600
" />
<path d="M32844000 56379401
L34046000 56379401
" />
<path d="M31145000 57900401
L32863000 57900401
" />
<path d="M29970000 56419401
L31164000 56419401
" />
<path d="M30174000 56980401
L31164000 56980401
" />
<path d="M29924000 55979401
L34084000 55979401
" />
<path d="M30097000 56820401
L31164000 56820401
" />
<path d="M32844000 57540401
L33400000 57540401
" />
<path d="M30296000 57180401
L31164000 57180401
" />
<path d="M32844000 57740401
L33146000 57740401
" />
<path d="M31340000 57980401
L32668000 57980401
" />
<path d="M32844000 56980401
L33834000 56980401
" />
<path d="M30750000 57660401
L31164000 57660401
" />
<path d="M30700000 57620401
L31164000 57620401
" />
<path d="M32844000 56219401
L34071000 56219401
" />
<path d="M32844000 57260401
L33654000 57260401
" />
<path d="M32844000 57660401
L33258000 57660401
" />
<path d="M30924000 57780401
L31164000 57780401
" />
<path d="M30566000 57500401
L31164000 57500401
" />
<path d="M31064000 57860401
L32944000 57860401
" />
<path d="M29954000 56339401
L31164000 56339401
" />
<path d="M29999000 56539401
L31164000 56539401
" />
<path d="M30526000 57460401
L31164000 57460401
" />
<path d="M29962000 56379401
L31164000 56379401
" />
<path d="M32844000 56179401
L34075000 56179401
" />
<path d="M32844000 57620401
L33308000 57620401
" />
<path d="M31467000 58020401
L32541000 58020401
" />
<path d="M30608000 57540401
L31164000 57540401
" />
<path d="M32844000 57180401
L33712000 57180401
" />
<path d="M29937000 56219401
L31164000 56219401
" />
<path d="M30991000 57820401
L33017000 57820401
" />
<path d="M32844000 56860401
L33893000 56860401
" />
<path d="M30244000 57100401
L31164000 57100401
" />
<path d="M32844000 57220401
L33684000 57220401
" />
<path d="M30064000 56740401
L31164000 56740401
" />
<path d="M30417000 57340401
L31164000 57340401
" />
<path d="M30862000 57740401
L31164000 57740401
" />
<path d="M32844000 57420401
L33520000 57420401
" />
<path d="M30196000 57020401
L31164000 57020401
" />
<path d="M29988000 56499401
L31164000 56499401
" />
<path d="M31634000 58060401
L32374000 58060401
" />
<path d="M30010000 56579401
L31164000 56579401
" />
<path d="M29942000 56259401
L31164000 56259401
" />
<path d="M30269000 57140401
L31164000 57140401
" />
<path d="M32844000 56339401
L34054000 56339401
" />
<path d="M29979000 56459401
L31164000 56459401
" />
<path d="M30050000 56700401
L31164000 56700401
" />
<path d="M29930000 56139401
L34078000 56139401
" />
<path d="M32844000 57020401
L33812000 57020401
" />
<path d="M32844000 56740401
L33944000 56740401
" />
<path d="M30080000 56780401
L31164000 56780401
" />
<path d="M32844000 57460401
L33482000 57460401
" />
<path d="M32844000 56820401
L33911000 56820401
" />
<path d="M32844000 56459401
L34029000 56459401
" />
<path d="M32844000 56539401
L34009000 56539401
" />
<path d="M30134000 56900401
L31164000 56900401
" />
<path d="M30488000 57420401
L31164000 57420401
" />
<path d="M30385000 57300401
L31164000 57300401
" />
<path d="M32844000 56299401
L34060000 56299401
" />
<path d="M32844000 57380401
L33556000 57380401
" />
<path d="M32844000 57140401
L33739000 57140401
" />
<path d="M30022000 56619401
L31164000 56619401
" />
<path d="M32844000 57700401
L33204000 57700401
" />
<path d="M29948000 56299401
L31164000 56299401
" />
<path d="M32844000 57500401
L33442000 57500401
" />
<path d="M30609000 53909600
L31009000 53909600
" />
<path d="M32844000 57340401
L33591000 57340401
" />
<path d="M30153000 56940401
L31164000 56940401
" />
<path d="M32844000 57300401
L33623000 57300401
" />
<path d="M32844000 56659401
L33972000 56659401
" />
<path d="M30036000 56659401
L31164000 56659401
" />
<path d="M32844000 56579401
L33998000 56579401
" />
<path d="M32844000 56259401
L34066000 56259401
" />
<path d="M32844000 57780401
L33084000 57780401
" />
<circle cx="32004000.000000" cy="55979401.000000" r="2120000.000000" /> 
</g>
<g style="fill:#E8B2A7; fill-opacity:0.0; 
stroke:#E8B2A7; stroke-width:203200.000000; stroke-opacity:1; 
stroke-linecap:round; stroke-linejoin:round;">
<path d="M59944000 50292000
L59944000 45212000
" />
<path d="M49784000 50292000
L49784000 46228000
" />
<path d="M49784000 45212000
L49784000 46228000
" />
<path d="M49784000 46228000
L49784000 46736000
" />
<path d="M49784000 50292000
L59944000 50292000
" />
<path d="M49784000 45212000
L59944000 45212000
" />
</g>
<g style="fill:#E8B2A7; fill-opacity:0.0; 
stroke:#E8B2A7; stroke-width:254000.000000; stroke-opacity:1; 
stroke-linecap:round; stroke-linejoin:round;">
<circle cx="51054000.000000" cy="46482000.000000" r="718400.000000" /> 
</g>
<g style="fill:#E8B2A7; fill-opacity:0.0; 
stroke:#E8B2A7; stroke-width:120000.000000; stroke-opacity:1; 
stroke-linecap:round; stroke-linejoin:round;">
<path d="M80344000 75792000
L80344000 24792000
" />
<path d="M64944000 75792000
L64944000 24792000
" />
<path d="M62544000 75792000
L62544000 24792000
" />
<path d="M82744000 75792000
L82744000 24792000
" />
<path d="M62544000 73192000
L64944000 73192000
" />
<path d="M62144000 75792000
L83144000 75792000
" />
<path d="M83144000 75792000
L83144000 24792000
" />
<path d="M83144000 24792000
L62144000 24792000
" />
<path d="M62144000 24792000
L62144000 75792000
" />
<path d="M30050000 61665338
L31164000 61665338
" />
<path d="M30417000 62305338
L31164000 62305338
" />
<path d="M32844000 61424338
L34029000 61424338
" />
<path d="M32844000 61184338
L34071000 61184338
" />
<path d="M29930000 61104338
L34078000 61104338
" />
<path d="M32844000 61544338
L33998000 61544338
" />
<path d="M30244000 62065338
L31164000 62065338
" />
<path d="M32844000 61705338
L33944000 61705338
" />
<path d="M32844000 62545338
L33355000 62545338
" />
<path d="M30452000 62345338
L31164000 62345338
" />
<path d="M32844000 61945338
L33834000 61945338
" />
<path d="M32844000 62625338
L33258000 62625338
" />
<path d="M29948000 61264338
L31164000 61264338
" />
<path d="M32844000 61144338
L34075000 61144338
" />
<path d="M30153000 61905338
L31164000 61905338
" />
<path d="M30700000 62585338
L31164000 62585338
" />
<path d="M32844000 61665338
L33958000 61665338
" />
<path d="M30566000 62465338
L31164000 62465338
" />
<path d="M31064000 62825338
L32944000 62825338
" />
<path d="M31236000 62905338
L32772000 62905338
" />
<path d="M32844000 61985338
L33812000 61985338
" />
<path d="M32844000 61504338
L34009000 61504338
" />
<path d="M29988000 61464338
L31164000 61464338
" />
<path d="M29924000 60944338
L34084000 60944338
" />
<path d="M32844000 61224338
L34066000 61224338
" />
<path d="M32844000 61825338
L33893000 61825338
" />
<path d="M32844000 62105338
L33739000 62105338
" />
<path d="M32844000 61785338
L33911000 61785338
" />
<path d="M30809000 58674537
L30809000 59074537
" />
<path d="M32844000 61344338
L34046000 61344338
" />
<path d="M30608000 62505338
L31164000 62505338
" />
<path d="M29927000 61064338
L34081000 61064338
" />
<path d="M31467000 62985338
L32541000 62985338
" />
<path d="M29925000 61024338
L34083000 61024338
" />
<path d="M30609000 58874537
L31009000 58874537
" />
<path d="M32844000 61865338
L33874000 61865338
" />
<path d="M32844000 62345338
L33556000 62345338
" />
<path d="M32844000 62185338
L33684000 62185338
" />
<path d="M30080000 61745338
L31164000 61745338
" />
<path d="M30991000 62785338
L33017000 62785338
" />
<path d="M32844000 62585338
L33308000 62585338
" />
<path d="M32844000 61384338
L34038000 61384338
" />
<path d="M30296000 62145338
L31164000 62145338
" />
<path d="M30750000 62625338
L31164000 62625338
" />
<path d="M30036000 61624338
L31164000 61624338
" />
<path d="M32844000 62745338
L33084000 62745338
" />
<path d="M32844000 61624338
L33972000 61624338
" />
<path d="M29933000 61144338
L31164000 61144338
" />
<path d="M32844000 62465338
L33442000 62465338
" />
<path d="M30010000 61544338
L31164000 61544338
" />
<path d="M30385000 62265338
L31164000 62265338
" />
<path d="M31145000 62865338
L32863000 62865338
" />
<path d="M30324000 62185338
L31164000 62185338
" />
<path d="M29970000 61384338
L31164000 61384338
" />
<path d="M30064000 61705338
L31164000 61705338
" />
<path d="M29937000 61184338
L31164000 61184338
" />
<path d="M32844000 62425338
L33482000 62425338
" />
<path d="M30196000 61985338
L31164000 61985338
" />
<path d="M32844000 62065338
L33764000 62065338
" />
<path d="M32844000 62665338
L33204000 62665338
" />
<path d="M29954000 61304338
L31164000 61304338
" />
<path d="M30862000 62705338
L31164000 62705338
" />
<path d="M29979000 61424338
L31164000 61424338
" />
<path d="M32844000 62505338
L33400000 62505338
" />
<path d="M31634000 63025338
L32374000 63025338
" />
<path d="M30488000 62385338
L31164000 62385338
" />
<path d="M30022000 61584338
L31164000 61584338
" />
<path d="M30924000 62745338
L31164000 62745338
" />
<path d="M32844000 62385338
L33520000 62385338
" />
<path d="M32844000 61745338
L33928000 61745338
" />
<path d="M30134000 61865338
L31164000 61865338
" />
<path d="M30653000 62545338
L31164000 62545338
" />
<path d="M30269000 62105338
L31164000 62105338
" />
<path d="M30804000 62665338
L31164000 62665338
" />
<path d="M32844000 62225338
L33654000 62225338
" />
<path d="M32844000 61464338
L34020000 61464338
" />
<path d="M30354000 62225338
L31164000 62225338
" />
<path d="M29924000 60984338
L34084000 60984338
" />
<path d="M32844000 61905338
L33855000 61905338
" />
<path d="M32844000 62705338
L33146000 62705338
" />
<path d="M29962000 61344338
L31164000 61344338
" />
<path d="M32844000 61264338
L34060000 61264338
" />
<path d="M30097000 61785338
L31164000 61785338
" />
<path d="M30526000 62425338
L31164000 62425338
" />
<path d="M32844000 62025338
L33789000 62025338
" />
<path d="M32844000 62265338
L33623000 62265338
" />
<path d="M29999000 61504338
L31164000 61504338
" />
<path d="M30219000 62025338
L31164000 62025338
" />
<path d="M30174000 61945338
L31164000 61945338
" />
<path d="M29942000 61224338
L31164000 61224338
" />
<path d="M32844000 62145338
L33712000 62145338
" />
<path d="M31340000 62945338
L32668000 62945338
" />
<path d="M32844000 62305338
L33591000 62305338
" />
<path d="M30115000 61825338
L31164000 61825338
" />
<path d="M32844000 61304338
L34054000 61304338
" />
<path d="M32844000 61584338
L33986000 61584338
" />
<circle cx="32004000.000000" cy="60944338.000000" r="2120000.000000" /> 
<path d="M17604000 27126892
L18769000 27126892
" />
<path d="M15622000 28327892
L15924000 28327892
" />
<path d="M17604000 26966892
L18806000 26966892
" />
<path d="M14875000 27447892
L15924000 27447892
" />
<path d="M15413000 28167892
L15924000 28167892
" />
<path d="M17604000 27647892
L18549000 27647892
" />
<path d="M17604000 27287892
L18718000 27287892
" />
<path d="M17604000 28047892
L18242000 28047892
" />
<path d="M14913000 27527892
L15924000 27527892
" />
<path d="M17604000 27887892
L18383000 27887892
" />
<path d="M17604000 28207892
L18068000 28207892
" />
<path d="M15460000 28207892
L15924000 28207892
" />
<path d="M15564000 28287892
L15924000 28287892
" />
<path d="M14894000 27487892
L15924000 27487892
" />
<path d="M17604000 27567892
L18594000 27567892
" />
<path d="M17604000 26926892
L18814000 26926892
" />
<path d="M17604000 27447892
L18653000 27447892
" />
<path d="M17604000 27327892
L18704000 27327892
" />
<path d="M15684000 28367892
L15924000 28367892
" />
<path d="M14840000 27367892
L15924000 27367892
" />
<path d="M15824000 28447892
L17704000 28447892
" />
<path d="M14857000 27407892
L15924000 27407892
" />
<path d="M15212000 27967892
L15924000 27967892
" />
<path d="M14748000 27086892
L15924000 27086892
" />
<path d="M17604000 27246892
L18732000 27246892
" />
<path d="M14759000 27126892
L15924000 27126892
" />
<path d="M14796000 27246892
L15924000 27246892
" />
<path d="M16394000 28647892
L17134000 28647892
" />
<path d="M17604000 27086892
L18780000 27086892
" />
<path d="M17604000 28327892
L17906000 28327892
" />
<path d="M17604000 27687892
L18524000 27687892
" />
<path d="M14697000 26806892
L15924000 26806892
" />
<path d="M14810000 27287892
L15924000 27287892
" />
<path d="M15751000 28407892
L17777000 28407892
" />
<path d="M17604000 28247892
L18018000 28247892
" />
<path d="M17604000 28007892
L18280000 28007892
" />
<path d="M17604000 27967892
L18316000 27967892
" />
<path d="M15286000 28047892
L15924000 28047892
" />
<path d="M17604000 26806892
L18831000 26806892
" />
<path d="M15004000 27687892
L15924000 27687892
" />
<path d="M15177000 27927892
L15924000 27927892
" />
<path d="M15326000 28087892
L15924000 28087892
" />
<path d="M15145000 27887892
L15924000 27887892
" />
<path d="M17604000 27487892
L18634000 27487892
" />
<path d="M14730000 27006892
L15924000 27006892
" />
<path d="M17604000 27006892
L18798000 27006892
" />
<path d="M15569000 24297091
L15569000 24697091
" />
<path d="M17604000 26846892
L18826000 26846892
" />
<path d="M15510000 28247892
L15924000 28247892
" />
<path d="M14956000 27607892
L15924000 27607892
" />
<path d="M14714000 26926892
L15924000 26926892
" />
<path d="M17604000 27807892
L18444000 27807892
" />
<path d="M17604000 27847892
L18414000 27847892
" />
<path d="M17604000 27046892
L18789000 27046892
" />
<path d="M15029000 27727892
L15924000 27727892
" />
<path d="M14739000 27046892
L15924000 27046892
" />
<path d="M15084000 27807892
L15924000 27807892
" />
<path d="M17604000 28127892
L18160000 28127892
" />
<path d="M17604000 27407892
L18671000 27407892
" />
<path d="M15369000 24497091
L15769000 24497091
" />
<path d="M17604000 27607892
L18572000 27607892
" />
<path d="M14702000 26846892
L15924000 26846892
" />
<path d="M15996000 28527892
L17532000 28527892
" />
<path d="M17604000 27367892
L18688000 27367892
" />
<path d="M17604000 27767892
L18472000 27767892
" />
<path d="M17604000 28167892
L18115000 28167892
" />
<path d="M14685000 26646892
L18843000 26646892
" />
<path d="M17604000 28287892
L17964000 28287892
" />
<path d="M14687000 26686892
L18841000 26686892
" />
<path d="M14934000 27567892
L15924000 27567892
" />
<path d="M17604000 27206892
L18746000 27206892
" />
<path d="M16100000 28567892
L17428000 28567892
" />
<path d="M14782000 27206892
L15924000 27206892
" />
<path d="M14979000 27647892
L15924000 27647892
" />
<path d="M14708000 26886892
L15924000 26886892
" />
<path d="M14693000 26766892
L15924000 26766892
" />
<path d="M17604000 27527892
L18615000 27527892
" />
<path d="M17604000 28087892
L18202000 28087892
" />
<path d="M15114000 27847892
L15924000 27847892
" />
<path d="M15056000 27767892
L15924000 27767892
" />
<path d="M14684000 26566892
L18844000 26566892
" />
<path d="M17604000 27927892
L18351000 27927892
" />
<path d="M14722000 26966892
L15924000 26966892
" />
<path d="M17604000 28367892
L17844000 28367892
" />
<path d="M14684000 26606892
L18844000 26606892
" />
<path d="M14690000 26726892
L18838000 26726892
" />
<path d="M14824000 27327892
L15924000 27327892
" />
<path d="M17604000 27727892
L18499000 27727892
" />
<path d="M17604000 26766892
L18835000 26766892
" />
<path d="M17604000 26886892
L18820000 26886892
" />
<path d="M15248000 28007892
L15924000 28007892
" />
<path d="M17604000 27166892
L18758000 27166892
" />
<path d="M15905000 28487892
L17623000 28487892
" />
<path d="M14770000 27166892
L15924000 27166892
" />
<path d="M16227000 28607892
L17301000 28607892
" />
<path d="M15368000 28127892
L15924000 28127892
" />
<circle cx="16764000.000000" cy="26566892.000000" r="2120000.000000" /> 
<path d="M16764000 14402000
L16764000 15352000
" />
<path d="M15844000 15352000
L17684000 15352000
" />
<path d="M17684000 15352000
L17684000 19192000
" />
<path d="M15844000 19192000
L15844000 15352000
" />
<path d="M17684000 19192000
L15844000 19192000
" />
<path d="M16764000 20142000
L16764000 19192000
" />
<path d="M6604000 14402000
L6604000 15352000
" />
<path d="M6604000 20142000
L6604000 19192000
" />
<path d="M7524000 19192000
L5684000 19192000
" />
<path d="M5684000 19192000
L5684000 15352000
" />
<path d="M7524000 15352000
L7524000 19192000
" />
<path d="M5684000 15352000
L7524000 15352000
" />
<g >
</g>
<g >
</g>
<g >
</g>
<g >
</g>
<g >
</g>
<g >
</g>
<g >
</g>
<g >
</g>
<g >
</g>
<g >
</g>
<g >
</g>
<g >
</g>
<g >
</g>
<g >
</g>
<g >
</g>
<g >
</g>
<g >
</g>
<g >
</g>
<g >
</g>
<g >
</g>
<g >
</g>
<g >
</g>
<g >
</g>
<g >
</g>
<g >
</g>
<g >
</g>
<g >
</g>
<g >
</g>
<g >
</g>
</g>
<g style="fill:#000000; fill-opacity:0.0; 
stroke:#000000; stroke-width:120000.000000; stroke-opacity:1; 
stroke-linecap:round; stroke-linejoin:round;">
</g>
<g style="fill:#D0D2CD; fill-opacity:0.0; 
stroke:#D0D2CD; stroke-width:120000.000000; stroke-opacity:1; 
stroke-linecap:round; stroke-linejoin:round;">
</g>
<g style="fill:#D0D2CD; fill-opacity:0.0; 
stroke:#D0D2CD; stroke-width:100000.000000; stroke-opacity:1; 
stroke-linecap:round; stroke-linejoin:round;">
<path d="M84836000 83312000
L3556000 83312000
" />
<path d="M3556000 83312000
L3556000 2540000
" />
<path d="M3556000 2540000
L84836000 2540000
" />
<path d="M84836000 2540000
L84836000 83312000
" />
<circle cx="80772000.000000" cy="6604000.000000" r="2540000.000000" /> 
<circle cx="7620000.000000" cy="79248000.000000" r="2540000.000000" /> 
<circle cx="7620000.000000" cy="6604000.000000" r="2540000.000000" /> 
<circle cx="80772000.000000" cy="79248000.000000" r="2540000.000000" /> 
<g >
</g>
<g >
</g>
<g >
</g>
<g >
</g>
<g >
</g>
<g >
</g>
<g >
</g>
<g >
</g>
<g >
</g>
<g >
</g>
<g >
</g>
<g >
</g>
<g >
</g>
<g >
</g>
<g >
</g>
<g >
</g>
<g >
</g>
<g >
</g>
<g >
</g>
<g >
</g>
<g >
</g>
<g >
</g>
<g >
</g>
<g >
</g>
<g >
</g>
<g >
</g>
<g >
</g>
<g >
</g>
<g >
</g>
</g> 
</svg>
