<?xml version="1.0" standalone="no"?>
 <!DOCTYPE svg PUBLIC "-//W3C//DTD SVG 1.1//EN" 
 "http://www.w3.org/Graphics/SVG/1.1/DTD/svg11.dtd"> 
<svg
  xmlns:svg="http://www.w3.org/2000/svg"
  xmlns="http://www.w3.org/2000/svg"
  xmlns:xlink="http://www.w3.org/1999/xlink"
  version="1.1"
  width="8.788400cm" height="8.585200cm" viewBox="0 0 87884000 85852000">
<title>SVG Picture created as clockschematic-F_Silkscreen.svg date 2023/07/26 13:47:30 </title>
  <desc>Picture generated by PCBNEW </desc>
<g style="fill:#000000; fill-opacity:1.000000;stroke:#000000; stroke-opacity:1.000000;
stroke-linecap:round; stroke-linejoin:round;"
 transform="translate(0 0) scale(1 1)">
</g>
<g style="fill:#000000; fill-opacity:0.0; 
stroke:#000000; stroke-width:0.000000; stroke-opacity:1; 
stroke-linecap:round; stroke-linejoin:round;">
</g>
<g style="fill:#F2EDA1; fill-opacity:0.0; 
stroke:#F2EDA1; stroke-width:0.000000; stroke-opacity:1; 
stroke-linecap:round; stroke-linejoin:round;">
</g>
<g style="fill:#F2EDA1; fill-opacity:0.0; 
stroke:#F2EDA1; stroke-width:150000.000000; stroke-opacity:1; 
stroke-linecap:round; stroke-linejoin:round;">
<text x="42164000.000000" y="64322000.000000"
textLength="3242619.000000" font-size="1333333.000000" lengthAdjust="spacingAndGlyphs"
text-anchor="middle" opacity="0">SW2</text>
<g class="stroked-text"><desc>SW2</desc>
<path d="M40830666 64226761
L40973523 64274380
L41211619 64274380
L41306857 64226761
L41354476 64179142
L41402095 64083904
L41402095 63988666
L41354476 63893428
L41306857 63845809
L41211619 63798190
L41021142 63750571
L40925904 63702952
L40878285 63655333
L40830666 63560095
L40830666 63464857
L40878285 63369619
L40925904 63322000
L41021142 63274380
L41259238 63274380
L41402095 63322000
" />
<path d="M41735428 63274380
L41973523 64274380
L42164000 63560095
L42354476 64274380
L42592571 63274380
" />
<path d="M42925904 63369619
L42973523 63322000
L43068761 63274380
L43306857 63274380
L43402095 63322000
L43449714 63369619
L43497333 63464857
L43497333 63560095
L43449714 63702952
L42878285 64274380
L43497333 64274380
" />
</g><text x="57404000.000000" y="64322000.000000"
textLength="3242619.000000" font-size="1333333.000000" lengthAdjust="spacingAndGlyphs"
text-anchor="middle" opacity="0">SW1</text>
<g class="stroked-text"><desc>SW1</desc>
<path d="M56070666 64226761
L56213523 64274380
L56451619 64274380
L56546857 64226761
L56594476 64179142
L56642095 64083904
L56642095 63988666
L56594476 63893428
L56546857 63845809
L56451619 63798190
L56261142 63750571
L56165904 63702952
L56118285 63655333
L56070666 63560095
L56070666 63464857
L56118285 63369619
L56165904 63322000
L56261142 63274380
L56499238 63274380
L56642095 63322000
" />
<path d="M56975428 63274380
L57213523 64274380
L57404000 63560095
L57594476 64274380
L57832571 63274380
" />
<path d="M58737333 64274380
L58165904 64274380
" />
<path d="M58451619 64274380
L58451619 63274380
L58356380 63417238
L58261142 63512476
L58165904 63560095
" />
</g><text x="35184000.000000" y="39462000.000000"
textLength="4575952.000000" font-size="1333333.000000" lengthAdjust="spacingAndGlyphs"
text-anchor="middle" opacity="0">DISP1</text>
<g class="stroked-text"><desc>DISP1</desc>
<path d="M33231619 39414380
L33231619 38414380
L33469714 38414380
L33612571 38462000
L33707809 38557238
L33755428 38652476
L33803047 38842952
L33803047 38985809
L33755428 39176285
L33707809 39271523
L33612571 39366761
L33469714 39414380
L33231619 39414380
" />
<path d="M34231619 39414380
L34231619 38414380
" />
<path d="M34660190 39366761
L34803047 39414380
L35041142 39414380
L35136380 39366761
L35184000 39319142
L35231619 39223904
L35231619 39128666
L35184000 39033428
L35136380 38985809
L35041142 38938190
L34850666 38890571
L34755428 38842952
L34707809 38795333
L34660190 38700095
L34660190 38604857
L34707809 38509619
L34755428 38462000
L34850666 38414380
L35088761 38414380
L35231619 38462000
" />
<path d="M35660190 39414380
L35660190 38414380
L36041142 38414380
L36136380 38462000
L36184000 38509619
L36231619 38604857
L36231619 38747714
L36184000 38842952
L36136380 38890571
L36041142 38938190
L35660190 38938190
" />
<path d="M37184000 39414380
L36612571 39414380
" />
<path d="M36898285 39414380
L36898285 38414380
L36803047 38557238
L36707809 38652476
L36612571 38700095
" />
</g><g transform="rotate(-90.000000 68700000.000000 52445000.000000)">
<text x="68700000.000000" y="52945000.000000"
textLength="2147381.000000" font-size="1333333.000000" lengthAdjust="spacingAndGlyphs"
text-anchor="middle" opacity="0">R2</text>
</g>
<g class="stroked-text"><desc>R2</desc>
<path d="M69152380 52611666
L68676190 52945000
" />
<path d="M69152380 53183095
L68152380 53183095
L68152380 52802142
L68200000 52706904
L68247619 52659285
L68342857 52611666
L68485714 52611666
L68580952 52659285
L68628571 52706904
L68676190 52802142
L68676190 53183095
" />
<path d="M68247619 52230714
L68200000 52183095
L68152380 52087857
L68152380 51849761
L68200000 51754523
L68247619 51706904
L68342857 51659285
L68438095 51659285
L68580952 51706904
L69152380 52278333
L69152380 51659285
" />
</g><text x="26924000.000000" y="64322000.000000"
textLength="3242619.000000" font-size="1333333.000000" lengthAdjust="spacingAndGlyphs"
text-anchor="middle" opacity="0">SW3</text>
<g class="stroked-text"><desc>SW3</desc>
<path d="M25590666 64226761
L25733523 64274380
L25971619 64274380
L26066857 64226761
L26114476 64179142
L26162095 64083904
L26162095 63988666
L26114476 63893428
L26066857 63845809
L25971619 63798190
L25781142 63750571
L25685904 63702952
L25638285 63655333
L25590666 63560095
L25590666 63464857
L25638285 63369619
L25685904 63322000
L25781142 63274380
L26019238 63274380
L26162095 63322000
" />
<path d="M26495428 63274380
L26733523 64274380
L26924000 63560095
L27114476 64274380
L27352571 63274380
" />
<path d="M27638285 63274380
L28257333 63274380
L27924000 63655333
L28066857 63655333
L28162095 63702952
L28209714 63750571
L28257333 63845809
L28257333 64083904
L28209714 64179142
L28162095 64226761
L28066857 64274380
L27781142 64274380
L27685904 64226761
L27638285 64179142
" />
</g><g transform="rotate(-90.000000 72248000.000000 52070000.000000)">
<text x="72248000.000000" y="52570000.000000"
textLength="2147381.000000" font-size="1333333.000000" lengthAdjust="spacingAndGlyphs"
text-anchor="middle" opacity="0">R1</text>
</g>
<g class="stroked-text"><desc>R1</desc>
<path d="M72700380 52236666
L72224190 52570000
" />
<path d="M72700380 52808095
L71700380 52808095
L71700380 52427142
L71748000 52331904
L71795619 52284285
L71890857 52236666
L72033714 52236666
L72128952 52284285
L72176571 52331904
L72224190 52427142
L72224190 52808095
" />
<path d="M72700380 51284285
L72700380 51855714
" />
<path d="M72700380 51570000
L71700380 51570000
L71843238 51665238
L71938476 51760476
L71986095 51855714
" />
</g><text x="11684000.000000" y="64322000.000000"
textLength="3242619.000000" font-size="1333333.000000" lengthAdjust="spacingAndGlyphs"
text-anchor="middle" opacity="0">SW4</text>
<g class="stroked-text"><desc>SW4</desc>
<path d="M10350666 64226761
L10493523 64274380
L10731619 64274380
L10826857 64226761
L10874476 64179142
L10922095 64083904
L10922095 63988666
L10874476 63893428
L10826857 63845809
L10731619 63798190
L10541142 63750571
L10445904 63702952
L10398285 63655333
L10350666 63560095
L10350666 63464857
L10398285 63369619
L10445904 63322000
L10541142 63274380
L10779238 63274380
L10922095 63322000
" />
<path d="M11255428 63274380
L11493523 64274380
L11684000 63560095
L11874476 64274380
L12112571 63274380
" />
<path d="M12922095 63607714
L12922095 64274380
" />
<path d="M12684000 63226761
L12445904 63941047
L13064952 63941047
" />
</g><text x="72644000.000000" y="54340000.000000"
textLength="4195000.000000" font-size="2666666.000000" lengthAdjust="spacingAndGlyphs"
text-anchor="middle" opacity="0">U0</text>
<g class="stroked-text"><desc>U0</desc>
<path d="M71120190 52244761
L71120190 53863809
L71215428 54054285
L71310666 54149523
L71501142 54244761
L71882095 54244761
L72072571 54149523
L72167809 54054285
L72263047 53863809
L72263047 52244761
" />
<path d="M73596380 52244761
L73786857 52244761
L73977333 52340000
L74072571 52435238
L74167809 52625714
L74263047 53006666
L74263047 53482857
L74167809 53863809
L74072571 54054285
L73977333 54149523
L73786857 54244761
L73596380 54244761
L73405904 54149523
L73310666 54054285
L73215428 53863809
L73120190 53482857
L73120190 53006666
L73215428 52625714
L73310666 52435238
L73405904 52340000
L73596380 52244761
" />
</g></g>
<g style="fill:#F2EDA1; fill-opacity:0.0; 
stroke:#F2EDA1; stroke-width:120000.000000; stroke-opacity:1; 
stroke-linecap:round; stroke-linejoin:round;">
<path d="M39914000 71322000
L44414000 71322000
" />
<path d="M38664000 67322000
L38664000 68822000
" />
<path d="M44414000 64822000
L39914000 64822000
" />
<path d="M45664000 68822000
L45664000 67322000
" />
<path d="M53904000 67322000
L53904000 68822000
" />
<path d="M55154000 71322000
L59654000 71322000
" />
<path d="M60904000 68822000
L60904000 67322000
" />
<path d="M59654000 64822000
L55154000 64822000
" />
</g>
<g style="fill:#F2EDA1; fill-opacity:0.0; 
stroke:#F2EDA1; stroke-width:250000.000000; stroke-opacity:1; 
stroke-linecap:round; stroke-linejoin:round;">
<path d="M43764000 28972000
L25514000 28972000
" />
<path d="M25514000 25972000
L25514000 28972000
" />
<path d="M43764000 25972000
L25514000 25972000
" />
<path d="M43764000 25972000
L43764000 28972000
" />
</g>
<g style="fill:#F2EDA1; fill-opacity:0.0; 
stroke:#F2EDA1; stroke-width:120000.000000; stroke-opacity:1; 
stroke-linecap:round; stroke-linejoin:round;">
<path d="M70200000 53990000
L72040000 53990000
" />
<path d="M72040000 53990000
L72040000 50150000
" />
<path d="M70200000 50150000
L70200000 53990000
" />
<path d="M71120000 54940000
L71120000 53990000
" />
<path d="M72040000 50150000
L70200000 50150000
" />
<path d="M71120000 49200000
L71120000 50150000
" />
<path d="M24674000 71322000
L29174000 71322000
" />
<path d="M30424000 68822000
L30424000 67322000
" />
<path d="M29174000 64822000
L24674000 64822000
" />
<path d="M23424000 67322000
L23424000 68822000
" />
<path d="M75088000 53990000
L75088000 50150000
" />
<path d="M73248000 50150000
L73248000 53990000
" />
<path d="M73248000 53990000
L75088000 53990000
" />
<path d="M75088000 50150000
L73248000 50150000
" />
<path d="M74168000 49200000
L74168000 50150000
" />
<path d="M74168000 54940000
L74168000 53990000
" />
<path d="M13934000 64822000
L9434000 64822000
" />
<path d="M9434000 71322000
L13934000 71322000
" />
<path d="M8184000 67322000
L8184000 68822000
" />
<path d="M15184000 68822000
L15184000 67322000
" />
<g >
</g>
<g >
</g>
<g >
</g>
<g >
</g>
<g >
</g>
<g >
</g>
<g >
</g>
<g >
</g>
<g >
</g>
<g >
</g>
<g >
</g>
<g >
</g>
<g >
</g>
<g >
</g>
<g >
</g>
<g >
</g>
<g >
</g>
<g >
</g>
<g >
</g>
<g >
</g>
<g >
</g>
<g >
</g>
<g >
</g>
<g >
</g>
<g >
</g>
<g >
</g>
<g >
</g>
<g >
</g>
<g >
</g>
</g>
<g style="fill:#000000; fill-opacity:0.0; 
stroke:#000000; stroke-width:120000.000000; stroke-opacity:1; 
stroke-linecap:round; stroke-linejoin:round;">
</g>
<g style="fill:#D0D2CD; fill-opacity:0.0; 
stroke:#D0D2CD; stroke-width:120000.000000; stroke-opacity:1; 
stroke-linecap:round; stroke-linejoin:round;">
</g>
<g style="fill:#D0D2CD; fill-opacity:0.0; 
stroke:#D0D2CD; stroke-width:100000.000000; stroke-opacity:1; 
stroke-linecap:round; stroke-linejoin:round;">
<path d="M84836000 83312000
L3556000 83312000
" />
<path d="M3556000 83312000
L3556000 2540000
" />
<path d="M3556000 2540000
L84836000 2540000
" />
<path d="M84836000 2540000
L84836000 83312000
" />
<circle cx="80772000.000000" cy="6604000.000000" r="2540000.000000" /> 
<circle cx="7620000.000000" cy="79248000.000000" r="2540000.000000" /> 
<circle cx="7620000.000000" cy="6604000.000000" r="2540000.000000" /> 
<circle cx="80772000.000000" cy="79248000.000000" r="2540000.000000" /> 
<g >
</g>
<g >
</g>
<g >
</g>
<g >
</g>
<g >
</g>
<g >
</g>
<g >
</g>
<g >
</g>
<g >
</g>
<g >
</g>
<g >
</g>
<g >
</g>
<g >
</g>
<g >
</g>
<g >
</g>
<g >
</g>
<g >
</g>
<g >
</g>
<g >
</g>
<g >
</g>
<g >
</g>
<g >
</g>
<g >
</g>
<g >
</g>
<g >
</g>
<g >
</g>
<g >
</g>
<g >
</g>
<g >
</g>
</g> 
</svg>
